<svg version="1.1" viewBox="0.0 0.0 438.0 305.0" fill="none" stroke="none" stroke-linecap="square" stroke-miterlimit="10" width="438" height="305" xmlns:xlink="http://www.w3.org/1999/xlink" xmlns="http://www.w3.org/2000/svg"><path fill="#ffffff" d="M0 0L438.0 0L438.0 305.0L0 305.0L0 0Z" fill-rule="nonzero"/><path stroke="#cccccc" stroke-width="1.0" stroke-linecap="butt" d="M127.5 46.5L127.5 237.5" fill-rule="nonzero"/><path stroke="#cccccc" stroke-width="1.0" stroke-linecap="butt" d="M191.5 46.5L191.5 237.5" fill-rule="nonzero"/><path stroke="#cccccc" stroke-width="1.0" stroke-linecap="butt" d="M254.5 46.5L254.5 237.5" fill-rule="nonzero"/><path stroke="#cccccc" stroke-width="1.0" stroke-linecap="butt" d="M318.5 46.5L318.5 237.5" fill-rule="nonzero"/><path stroke="#cccccc" stroke-width="1.0" stroke-linecap="butt" d="M382.5 46.5L382.5 237.5" fill-rule="nonzero"/><path stroke="#333333" stroke-width="1.0" stroke-linecap="butt" d="M74.5 237.5L422.5 237.5" fill-rule="nonzero"/><path stroke="#cccccc" stroke-width="1.0" stroke-linecap="butt" d="M74.5 173.5L422.5 173.5" fill-rule="nonzero"/><path stroke="#cccccc" stroke-width="1.0" stroke-linecap="butt" d="M74.5 110.5L422.5 110.5" fill-rule="nonzero"/><path stroke="#cccccc" stroke-width="1.0" stroke-linecap="butt" d="M74.5 46.5L422.5 46.5" fill-rule="nonzero"/><clipPath id="id_0"><path d="M74.25 46.416668L422.75 46.416668L422.75 237.75L74.25 237.75L74.25 46.416668Z" clip-rule="nonzero"/></clipPath><path stroke="#4285f4" stroke-width="2.0" stroke-linecap="butt" clip-path="url(#id_0)" d="M76.2273 231.37222L88.98824 225.33464L101.74918 219.31206L114.510124 213.49219L127.271065 208.18015L140.03201 202.03242L152.79295 196.16133L165.5539 190.79926L178.31483 185.7532L191.07578 180.01825L203.83672 175.26813L216.59766 169.40532L229.3586 165.29073L242.11954 159.46043L254.88046 155.25616L267.64142 150.05257L280.40234 146.90498L293.1633 142.2229L305.92422 137.10391L318.68518 133.21922L331.4461 129.25746L344.20706 124.53637L356.968 120.318886L369.72894 115.88808L382.48987 114.11837L395.25082 107.64581L408.01175 105.81477L420.7727 101.40482" fill-rule="nonzero"/><path stroke="#ea4335" stroke-width="2.0" stroke-linecap="butt" clip-path="url(#id_0)" d="M76.2273 231.37222L88.98824 224.71643L101.74918 218.7643L114.510124 211.85825L127.271065 205.66493L140.03201 199.04395L152.79295 192.87143L165.5539 188.88806L178.31483 180.77357L191.07578 175.08067L203.83672 169.6548L216.59766 163.50569L229.3586 157.94107L242.11954 150.60942L254.88046 146.08392L267.64142 141.775L280.40234 136.4243L293.1633 130.9634L305.92422 122.05025L318.68518 118.59002L331.4461 112.06931L344.20706 109.0614L356.968 106.91483L369.72894 98.35901L382.48987 93.24708L395.25082 85.25002L408.01175 87.93739L420.7727 86.301414" fill-rule="nonzero"/><path stroke="#fbbc04" stroke-width="2.0" stroke-linecap="butt" clip-path="url(#id_0)" d="M76.2273 231.37222L88.98824 224.94115L101.74918 218.67154L114.510124 212.118L127.271065 206.02498L140.03201 199.39001L152.79295 193.28598L165.5539 186.71513L178.31483 180.53369L191.07578 174.00984L203.83672 167.75063L216.59766 161.24179L229.3586 155.18964L242.11954 148.6483L254.88046 142.51857L267.64142 135.93852L280.40234 129.76639L293.1633 123.166824L305.92422 119.86573L318.68518 113.60446L331.4461 104.535904L344.20706 98.02281L356.968 92.10072L369.72894 85.29976L382.48987 83.23116L395.25082 72.78019L408.01175 81.552124L420.7727 77.57453" fill-rule="nonzero"/><path fill="#4285f4" clip-path="url(#id_0)" d="M78.2273 231.37222C78.2273 232.47679 77.33187 233.37222 76.2273 233.37222C75.122734 233.37222 74.2273 232.47679 74.2273 231.37222C74.2273 230.26765 75.122734 229.37222 76.2273 229.37222C77.33187 229.37222 78.2273 230.26765 78.2273 231.37222Z" fill-rule="nonzero"/><path fill="#4285f4" clip-path="url(#id_0)" d="M90.98824 225.33464C90.98824 226.43921 90.09281 227.33464 88.98824 227.33464C87.883675 227.33464 86.98824 226.43921 86.98824 225.33464C86.98824 224.23007 87.883675 223.33464 88.98824 223.33464C90.09281 223.33464 90.98824 224.23007 90.98824 225.33464Z" fill-rule="nonzero"/><path fill="#4285f4" clip-path="url(#id_0)" d="M103.74918 219.31206C103.74918 220.41663 102.85375 221.31206 101.74918 221.31206C100.644615 221.31206 99.74918 220.41663 99.74918 219.31206C99.74918 218.20749 100.644615 217.31206 101.74918 217.31206C102.85375 217.31206 103.74918 218.20749 103.74918 219.31206Z" fill-rule="nonzero"/><path fill="#4285f4" clip-path="url(#id_0)" d="M116.510124 213.49219C116.510124 214.59676 115.61469 215.49219 114.510124 215.49219C113.405556 215.49219 112.510124 214.59676 112.510124 213.49219C112.510124 212.38762 113.405556 211.49219 114.510124 211.49219C115.61469 211.49219 116.510124 212.38762 116.510124 213.49219Z" fill-rule="nonzero"/><path fill="#4285f4" clip-path="url(#id_0)" d="M129.27107 208.18015C129.27107 209.28471 128.37564 210.18015 127.271065 210.18015C126.1665 210.18015 125.271065 209.28471 125.271065 208.18015C125.271065 207.07558 126.1665 206.18015 127.271065 206.18015C128.37564 206.18015 129.27107 207.07558 129.27107 208.18015Z" fill-rule="nonzero"/><path fill="#4285f4" clip-path="url(#id_0)" d="M142.03201 202.03242C142.03201 203.137 141.13658 204.03242 140.03201 204.03242C138.92744 204.03242 138.03201 203.137 138.03201 202.03242C138.03201 200.92786 138.92744 200.03242 140.03201 200.03242C141.13658 200.03242 142.03201 200.92786 142.03201 202.03242Z" fill-rule="nonzero"/><path fill="#4285f4" clip-path="url(#id_0)" d="M154.79295 196.16133C154.79295 197.26591 153.89752 198.16133 152.79295 198.16133C151.68839 198.16133 150.79295 197.26591 150.79295 196.16133C150.79295 195.05676 151.68839 194.16133 152.79295 194.16133C153.89752 194.16133 154.79295 195.05676 154.79295 196.16133Z" fill-rule="nonzero"/><path fill="#4285f4" clip-path="url(#id_0)" d="M167.5539 190.79926C167.5539 191.90382 166.65846 192.79926 165.5539 192.79926C164.44933 192.79926 163.5539 191.90382 163.5539 190.79926C163.5539 189.69469 164.44933 188.79926 165.5539 188.79926C166.65846 188.79926 167.5539 189.69469 167.5539 190.79926Z" fill-rule="nonzero"/><path fill="#4285f4" clip-path="url(#id_0)" d="M180.31483 185.7532C180.31483 186.85777 179.4194 187.7532 178.31483 187.7532C177.21025 187.7532 176.31483 186.85777 176.31483 185.7532C176.31483 184.64864 177.21025 183.7532 178.31483 183.7532C179.4194 183.7532 180.31483 184.64864 180.31483 185.7532Z" fill-rule="nonzero"/><path fill="#4285f4" clip-path="url(#id_0)" d="M193.07578 180.01825C193.07578 181.12282 192.18034 182.01825 191.07578 182.01825C189.97119 182.01825 189.07578 181.12282 189.07578 180.01825C189.07578 178.91368 189.97119 178.01825 191.07578 178.01825C192.18034 178.01825 193.07578 178.91368 193.07578 180.01825Z" fill-rule="nonzero"/><path fill="#4285f4" clip-path="url(#id_0)" d="M205.83672 175.26813C205.83672 176.3727 204.94128 177.26813 203.83672 177.26813C202.73213 177.26813 201.83672 176.3727 201.83672 175.26813C201.83672 174.16356 202.73213 173.26813 203.83672 173.26813C204.94128 173.26813 205.83672 174.16356 205.83672 175.26813Z" fill-rule="nonzero"/><path fill="#4285f4" clip-path="url(#id_0)" d="M218.59766 169.40532C218.59766 170.50989 217.70222 171.40532 216.59766 171.40532C215.49307 171.40532 214.59766 170.50989 214.59766 169.40532C214.59766 168.30075 215.49307 167.40532 216.59766 167.40532C217.70222 167.40532 218.59766 168.30075 218.59766 169.40532Z" fill-rule="nonzero"/><path fill="#4285f4" clip-path="url(#id_0)" d="M231.3586 165.29073C231.3586 166.3953 230.46317 167.29073 229.3586 167.29073C228.25401 167.29073 227.3586 166.3953 227.3586 165.29073C227.3586 164.18616 228.25401 163.29073 229.3586 163.29073C230.46317 163.29073 231.3586 164.18616 231.3586 165.29073Z" fill-rule="nonzero"/><path fill="#4285f4" clip-path="url(#id_0)" d="M244.11954 159.46043C244.11954 160.56502 243.2241 161.46043 242.11954 161.46043C241.01495 161.46043 240.11954 160.56502 240.11954 159.46043C240.11954 158.35587 241.01495 157.46043 242.11954 157.46043C243.2241 157.46043 244.11954 158.35587 244.11954 159.46043Z" fill-rule="nonzero"/><path fill="#4285f4" clip-path="url(#id_0)" d="M256.88046 155.25616C256.88046 156.36073 255.98505 157.25616 254.88046 157.25616C253.7759 157.25616 252.88046 156.36073 252.88046 155.25616C252.88046 154.1516 253.7759 153.25616 254.88046 153.25616C255.98505 153.25616 256.88046 154.1516 256.88046 155.25616Z" fill-rule="nonzero"/><path fill="#4285f4" clip-path="url(#id_0)" d="M269.64142 150.05257C269.64142 151.15714 268.74597 152.05257 267.64142 152.05257C266.53683 152.05257 265.64142 151.15714 265.64142 150.05257C265.64142 148.948 266.53683 148.05257 267.64142 148.05257C268.74597 148.05257 269.64142 148.948 269.64142 150.05257Z" fill-rule="nonzero"/><path fill="#4285f4" clip-path="url(#id_0)" d="M282.40234 146.90498C282.40234 148.00955 281.50693 148.90498 280.40234 148.90498C279.2978 148.90498 278.40234 148.00955 278.40234 146.90498C278.40234 145.80042 279.2978 144.90498 280.40234 144.90498C281.50693 144.90498 282.40234 145.80042 282.40234 146.90498Z" fill-rule="nonzero"/><path fill="#4285f4" clip-path="url(#id_0)" d="M295.1633 142.2229C295.1633 143.32747 294.26785 144.2229 293.1633 144.2229C292.05872 144.2229 291.1633 143.32747 291.1633 142.2229C291.1633 141.11832 292.05872 140.2229 293.1633 140.2229C294.26785 140.2229 295.1633 141.11832 295.1633 142.2229Z" fill-rule="nonzero"/><path fill="#4285f4" clip-path="url(#id_0)" d="M307.92422 137.10391C307.92422 138.20848 307.0288 139.10391 305.92422 139.10391C304.81967 139.10391 303.92422 138.20848 303.92422 137.10391C303.92422 135.99934 304.81967 135.10391 305.92422 135.10391C307.0288 135.10391 307.92422 135.99934 307.92422 137.10391Z" fill-rule="nonzero"/><path fill="#4285f4" clip-path="url(#id_0)" d="M320.68518 133.21922C320.68518 134.32379 319.78973 135.21922 318.68518 135.21922C317.5806 135.21922 316.68518 134.32379 316.68518 133.21922C316.68518 132.11465 317.5806 131.21922 318.68518 131.21922C319.78973 131.21922 320.68518 132.11465 320.68518 133.21922Z" fill-rule="nonzero"/><path fill="#4285f4" clip-path="url(#id_0)" d="M333.4461 129.25746C333.4461 130.36203 332.5507 131.25746 331.4461 131.25746C330.34155 131.25746 329.4461 130.36203 329.4461 129.25746C329.4461 128.1529 330.34155 127.25746 331.4461 127.25746C332.5507 127.25746 333.4461 128.1529 333.4461 129.25746Z" fill-rule="nonzero"/><path fill="#4285f4" clip-path="url(#id_0)" d="M346.20706 124.53637C346.20706 125.64094 345.3116 126.53637 344.20706 126.53637C343.10248 126.53637 342.20706 125.64094 342.20706 124.53637C342.20706 123.4318 343.10248 122.53637 344.20706 122.53637C345.3116 122.53637 346.20706 123.4318 346.20706 124.53637Z" fill-rule="nonzero"/><path fill="#4285f4" clip-path="url(#id_0)" d="M358.968 120.318886C358.968 121.42346 358.07257 122.318886 356.968 122.318886C355.86343 122.318886 354.968 121.42346 354.968 120.318886C354.968 119.21432 355.86343 118.318886 356.968 118.318886C358.07257 118.318886 358.968 119.21432 358.968 120.318886Z" fill-rule="nonzero"/><path fill="#4285f4" clip-path="url(#id_0)" d="M371.72894 115.88808C371.72894 116.992645 370.8335 117.88808 369.72894 117.88808C368.62436 117.88808 367.72894 116.992645 367.72894 115.88808C367.72894 114.78351 368.62436 113.88808 369.72894 113.88808C370.8335 113.88808 371.72894 114.78351 371.72894 115.88808Z" fill-rule="nonzero"/><path fill="#4285f4" clip-path="url(#id_0)" d="M384.48987 114.11837C384.48987 115.22294 383.59445 116.11837 382.48987 116.11837C381.3853 116.11837 380.48987 115.22294 380.48987 114.11837C380.48987 113.0138 381.3853 112.11837 382.48987 112.11837C383.59445 112.11837 384.48987 113.0138 384.48987 114.11837Z" fill-rule="nonzero"/><path fill="#4285f4" clip-path="url(#id_0)" d="M397.25082 107.64581C397.25082 108.75038 396.35538 109.64581 395.25082 109.64581C394.14624 109.64581 393.25082 108.75038 393.25082 107.64581C393.25082 106.541245 394.14624 105.64581 395.25082 105.64581C396.35538 105.64581 397.25082 106.541245 397.25082 107.64581Z" fill-rule="nonzero"/><path fill="#4285f4" clip-path="url(#id_0)" d="M410.01175 105.81477C410.01175 106.91934 409.11633 107.81477 408.01175 107.81477C406.9072 107.81477 406.01175 106.91934 406.01175 105.81477C406.01175 104.710205 406.9072 103.81477 408.01175 103.81477C409.11633 103.81477 410.01175 104.710205 410.01175 105.81477Z" fill-rule="nonzero"/><path fill="#4285f4" clip-path="url(#id_0)" d="M422.7727 101.40482C422.7727 102.50939 421.87726 103.40482 420.7727 103.40482C419.66812 103.40482 418.7727 102.50939 418.7727 101.40482C418.7727 100.300255 419.66812 99.40482 420.7727 99.40482C421.87726 99.40482 422.7727 100.300255 422.7727 101.40482Z" fill-rule="nonzero"/><path fill="#ea4335" clip-path="url(#id_0)" d="M78.2273 231.37222C78.2273 232.47679 77.33187 233.37222 76.2273 233.37222C75.122734 233.37222 74.2273 232.47679 74.2273 231.37222C74.2273 230.26765 75.122734 229.37222 76.2273 229.37222C77.33187 229.37222 78.2273 230.26765 78.2273 231.37222Z" fill-rule="nonzero"/><path fill="#ea4335" clip-path="url(#id_0)" d="M90.98824 224.71643C90.98824 225.821 90.09281 226.71643 88.98824 226.71643C87.883675 226.71643 86.98824 225.821 86.98824 224.71643C86.98824 223.61186 87.883675 222.71643 88.98824 222.71643C90.09281 222.71643 90.98824 223.61186 90.98824 224.71643Z" fill-rule="nonzero"/><path fill="#ea4335" clip-path="url(#id_0)" d="M103.74918 218.7643C103.74918 219.86887 102.85375 220.7643 101.74918 220.7643C100.644615 220.7643 99.74918 219.86887 99.74918 218.7643C99.74918 217.65973 100.644615 216.7643 101.74918 216.7643C102.85375 216.7643 103.74918 217.65973 103.74918 218.7643Z" fill-rule="nonzero"/><path fill="#ea4335" clip-path="url(#id_0)" d="M116.510124 211.85825C116.510124 212.96281 115.61469 213.85825 114.510124 213.85825C113.405556 213.85825 112.510124 212.96281 112.510124 211.85825C112.510124 210.75368 113.405556 209.85825 114.510124 209.85825C115.61469 209.85825 116.510124 210.75368 116.510124 211.85825Z" fill-rule="nonzero"/><path fill="#ea4335" clip-path="url(#id_0)" d="M129.27107 205.66493C129.27107 206.7695 128.37564 207.66493 127.271065 207.66493C126.1665 207.66493 125.271065 206.7695 125.271065 205.66493C125.271065 204.56036 126.1665 203.66493 127.271065 203.66493C128.37564 203.66493 129.27107 204.56036 129.27107 205.66493Z" fill-rule="nonzero"/><path fill="#ea4335" clip-path="url(#id_0)" d="M142.03201 199.04395C142.03201 200.14851 141.13658 201.04395 140.03201 201.04395C138.92744 201.04395 138.03201 200.14851 138.03201 199.04395C138.03201 197.93938 138.92744 197.04395 140.03201 197.04395C141.13658 197.04395 142.03201 197.93938 142.03201 199.04395Z" fill-rule="nonzero"/><path fill="#ea4335" clip-path="url(#id_0)" d="M154.79295 192.87143C154.79295 193.976 153.89752 194.87143 152.79295 194.87143C151.68839 194.87143 150.79295 193.976 150.79295 192.87143C150.79295 191.76686 151.68839 190.87143 152.79295 190.87143C153.89752 190.87143 154.79295 191.76686 154.79295 192.87143Z" fill-rule="nonzero"/><path fill="#ea4335" clip-path="url(#id_0)" d="M167.5539 188.88806C167.5539 189.99263 166.65846 190.88806 165.5539 190.88806C164.44933 190.88806 163.5539 189.99263 163.5539 188.88806C163.5539 187.7835 164.44933 186.88806 165.5539 186.88806C166.65846 186.88806 167.5539 187.7835 167.5539 188.88806Z" fill-rule="nonzero"/><path fill="#ea4335" clip-path="url(#id_0)" d="M180.31483 180.77357C180.31483 181.87814 179.4194 182.77357 178.31483 182.77357C177.21025 182.77357 176.31483 181.87814 176.31483 180.77357C176.31483 179.669 177.21025 178.77357 178.31483 178.77357C179.4194 178.77357 180.31483 179.669 180.31483 180.77357Z" fill-rule="nonzero"/><path fill="#ea4335" clip-path="url(#id_0)" d="M193.07578 175.08067C193.07578 176.18526 192.18034 177.08067 191.07578 177.08067C189.97119 177.08067 189.07578 176.18526 189.07578 175.08067C189.07578 173.9761 189.97119 173.08067 191.07578 173.08067C192.18034 173.08067 193.07578 173.9761 193.07578 175.08067Z" fill-rule="nonzero"/><path fill="#ea4335" clip-path="url(#id_0)" d="M205.83672 169.6548C205.83672 170.75937 204.94128 171.6548 203.83672 171.6548C202.73213 171.6548 201.83672 170.75937 201.83672 169.6548C201.83672 168.55023 202.73213 167.6548 203.83672 167.6548C204.94128 167.6548 205.83672 168.55023 205.83672 169.6548Z" fill-rule="nonzero"/><path fill="#ea4335" clip-path="url(#id_0)" d="M218.59766 163.50569C218.59766 164.61026 217.70222 165.50569 216.59766 165.50569C215.49307 165.50569 214.59766 164.61026 214.59766 163.50569C214.59766 162.40112 215.49307 161.50569 216.59766 161.50569C217.70222 161.50569 218.59766 162.40112 218.59766 163.50569Z" fill-rule="nonzero"/><path fill="#ea4335" clip-path="url(#id_0)" d="M231.3586 157.94107C231.3586 159.04564 230.46317 159.94107 229.3586 159.94107C228.25401 159.94107 227.3586 159.04564 227.3586 157.94107C227.3586 156.8365 228.25401 155.94107 229.3586 155.94107C230.46317 155.94107 231.3586 156.8365 231.3586 157.94107Z" fill-rule="nonzero"/><path fill="#ea4335" clip-path="url(#id_0)" d="M244.11954 150.60942C244.11954 151.71399 243.2241 152.60942 242.11954 152.60942C241.01495 152.60942 240.11954 151.71399 240.11954 150.60942C240.11954 149.50485 241.01495 148.60942 242.11954 148.60942C243.2241 148.60942 244.11954 149.50485 244.11954 150.60942Z" fill-rule="nonzero"/><path fill="#ea4335" clip-path="url(#id_0)" d="M256.88046 146.08392C256.88046 147.18849 255.98505 148.08392 254.88046 148.08392C253.7759 148.08392 252.88046 147.18849 252.88046 146.08392C252.88046 144.97935 253.7759 144.08392 254.88046 144.08392C255.98505 144.08392 256.88046 144.97935 256.88046 146.08392Z" fill-rule="nonzero"/><path fill="#ea4335" clip-path="url(#id_0)" d="M269.64142 141.775C269.64142 142.87956 268.74597 143.775 267.64142 143.775C266.53683 143.775 265.64142 142.87956 265.64142 141.775C265.64142 140.67043 266.53683 139.775 267.64142 139.775C268.74597 139.775 269.64142 140.67043 269.64142 141.775Z" fill-rule="nonzero"/><path fill="#ea4335" clip-path="url(#id_0)" d="M282.40234 136.4243C282.40234 137.52887 281.50693 138.4243 280.40234 138.4243C279.2978 138.4243 278.40234 137.52887 278.40234 136.4243C278.40234 135.31973 279.2978 134.4243 280.40234 134.4243C281.50693 134.4243 282.40234 135.31973 282.40234 136.4243Z" fill-rule="nonzero"/><path fill="#ea4335" clip-path="url(#id_0)" d="M295.1633 130.9634C295.1633 132.06796 294.26785 132.9634 293.1633 132.9634C292.05872 132.9634 291.1633 132.06796 291.1633 130.9634C291.1633 129.85883 292.05872 128.9634 293.1633 128.9634C294.26785 128.9634 295.1633 129.85883 295.1633 130.9634Z" fill-rule="nonzero"/><path fill="#ea4335" clip-path="url(#id_0)" d="M307.92422 122.05025C307.92422 123.15482 307.0288 124.05025 305.92422 124.05025C304.81967 124.05025 303.92422 123.15482 303.92422 122.05025C303.92422 120.94568 304.81967 120.05025 305.92422 120.05025C307.0288 120.05025 307.92422 120.94568 307.92422 122.05025Z" fill-rule="nonzero"/><path fill="#ea4335" clip-path="url(#id_0)" d="M320.68518 118.59002C320.68518 119.69459 319.78973 120.59002 318.68518 120.59002C317.5806 120.59002 316.68518 119.69459 316.68518 118.59002C316.68518 117.48545 317.5806 116.59002 318.68518 116.59002C319.78973 116.59002 320.68518 117.48545 320.68518 118.59002Z" fill-rule="nonzero"/><path fill="#ea4335" clip-path="url(#id_0)" d="M333.4461 112.06931C333.4461 113.17388 332.5507 114.06931 331.4461 114.06931C330.34155 114.06931 329.4461 113.17388 329.4461 112.06931C329.4461 110.964745 330.34155 110.06931 331.4461 110.06931C332.5507 110.06931 333.4461 110.964745 333.4461 112.06931Z" fill-rule="nonzero"/><path fill="#ea4335" clip-path="url(#id_0)" d="M346.20706 109.0614C346.20706 110.16597 345.3116 111.0614 344.20706 111.0614C343.10248 111.0614 342.20706 110.16597 342.20706 109.0614C342.20706 107.95683 343.10248 107.0614 344.20706 107.0614C345.3116 107.0614 346.20706 107.95683 346.20706 109.0614Z" fill-rule="nonzero"/><path fill="#ea4335" clip-path="url(#id_0)" d="M358.968 106.91483C358.968 108.01941 358.07257 108.91483 356.968 108.91483C355.86343 108.91483 354.968 108.01941 354.968 106.91483C354.968 105.810265 355.86343 104.91483 356.968 104.91483C358.07257 104.91483 358.968 105.810265 358.968 106.91483Z" fill-rule="nonzero"/><path fill="#ea4335" clip-path="url(#id_0)" d="M371.72894 98.35901C371.72894 99.46358 370.8335 100.35901 369.72894 100.35901C368.62436 100.35901 367.72894 99.46358 367.72894 98.35901C367.72894 97.25444 368.62436 96.35901 369.72894 96.35901C370.8335 96.35901 371.72894 97.25444 371.72894 98.35901Z" fill-rule="nonzero"/><path fill="#ea4335" clip-path="url(#id_0)" d="M384.48987 93.24708C384.48987 94.35165 383.59445 95.24708 382.48987 95.24708C381.3853 95.24708 380.48987 94.35165 380.48987 93.24708C380.48987 92.14251 381.3853 91.24708 382.48987 91.24708C383.59445 91.24708 384.48987 92.14251 384.48987 93.24708Z" fill-rule="nonzero"/><path fill="#ea4335" clip-path="url(#id_0)" d="M397.25082 85.25002C397.25082 86.35459 396.35538 87.25002 395.25082 87.25002C394.14624 87.25002 393.25082 86.35459 393.25082 85.25002C393.25082 84.14545 394.14624 83.25002 395.25082 83.25002C396.35538 83.25002 397.25082 84.14545 397.25082 85.25002Z" fill-rule="nonzero"/><path fill="#ea4335" clip-path="url(#id_0)" d="M410.01175 87.93739C410.01175 89.04196 409.11633 89.93739 408.01175 89.93739C406.9072 89.93739 406.01175 89.04196 406.01175 87.93739C406.01175 86.832825 406.9072 85.93739 408.01175 85.93739C409.11633 85.93739 410.01175 86.832825 410.01175 87.93739Z" fill-rule="nonzero"/><path fill="#ea4335" clip-path="url(#id_0)" d="M422.7727 86.301414C422.7727 87.40599 421.87726 88.301414 420.7727 88.301414C419.66812 88.301414 418.7727 87.40599 418.7727 86.301414C418.7727 85.196846 419.66812 84.301414 420.7727 84.301414C421.87726 84.301414 422.7727 85.196846 422.7727 86.301414Z" fill-rule="nonzero"/><path fill="#fbbc04" clip-path="url(#id_0)" d="M78.2273 231.37222C78.2273 232.47679 77.33187 233.37222 76.2273 233.37222C75.122734 233.37222 74.2273 232.47679 74.2273 231.37222C74.2273 230.26765 75.122734 229.37222 76.2273 229.37222C77.33187 229.37222 78.2273 230.26765 78.2273 231.37222Z" fill-rule="nonzero"/><path fill="#fbbc04" clip-path="url(#id_0)" d="M90.98824 224.94115C90.98824 226.04572 90.09281 226.94115 88.98824 226.94115C87.883675 226.94115 86.98824 226.04572 86.98824 224.94115C86.98824 223.83658 87.883675 222.94115 88.98824 222.94115C90.09281 222.94115 90.98824 223.83658 90.98824 224.94115Z" fill-rule="nonzero"/><path fill="#fbbc04" clip-path="url(#id_0)" d="M103.74918 218.67154C103.74918 219.77611 102.85375 220.67154 101.74918 220.67154C100.644615 220.67154 99.74918 219.77611 99.74918 218.67154C99.74918 217.56697 100.644615 216.67154 101.74918 216.67154C102.85375 216.67154 103.74918 217.56697 103.74918 218.67154Z" fill-rule="nonzero"/><path fill="#fbbc04" clip-path="url(#id_0)" d="M116.510124 212.118C116.510124 213.22256 115.61469 214.118 114.510124 214.118C113.405556 214.118 112.510124 213.22256 112.510124 212.118C112.510124 211.01343 113.405556 210.118 114.510124 210.118C115.61469 210.118 116.510124 211.01343 116.510124 212.118Z" fill-rule="nonzero"/><path fill="#fbbc04" clip-path="url(#id_0)" d="M129.27107 206.02498C129.27107 207.12955 128.37564 208.02498 127.271065 208.02498C126.1665 208.02498 125.271065 207.12955 125.271065 206.02498C125.271065 204.92041 126.1665 204.02498 127.271065 204.02498C128.37564 204.02498 129.27107 204.92041 129.27107 206.02498Z" fill-rule="nonzero"/><path fill="#fbbc04" clip-path="url(#id_0)" d="M142.03201 199.39001C142.03201 200.49458 141.13658 201.39001 140.03201 201.39001C138.92744 201.39001 138.03201 200.49458 138.03201 199.39001C138.03201 198.28545 138.92744 197.39001 140.03201 197.39001C141.13658 197.39001 142.03201 198.28545 142.03201 199.39001Z" fill-rule="nonzero"/><path fill="#fbbc04" clip-path="url(#id_0)" d="M154.79295 193.28598C154.79295 194.39055 153.89752 195.28598 152.79295 195.28598C151.68839 195.28598 150.79295 194.39055 150.79295 193.28598C150.79295 192.18141 151.68839 191.28598 152.79295 191.28598C153.89752 191.28598 154.79295 192.18141 154.79295 193.28598Z" fill-rule="nonzero"/><path fill="#fbbc04" clip-path="url(#id_0)" d="M167.5539 186.71513C167.5539 187.8197 166.65846 188.71513 165.5539 188.71513C164.44933 188.71513 163.5539 187.8197 163.5539 186.71513C163.5539 185.61057 164.44933 184.71513 165.5539 184.71513C166.65846 184.71513 167.5539 185.61057 167.5539 186.71513Z" fill-rule="nonzero"/><path fill="#fbbc04" clip-path="url(#id_0)" d="M180.31483 180.53369C180.31483 181.63826 179.4194 182.53369 178.31483 182.53369C177.21025 182.53369 176.31483 181.63826 176.31483 180.53369C176.31483 179.42912 177.21025 178.53369 178.31483 178.53369C179.4194 178.53369 180.31483 179.42912 180.31483 180.53369Z" fill-rule="nonzero"/><path fill="#fbbc04" clip-path="url(#id_0)" d="M193.07578 174.00984C193.07578 175.11441 192.18034 176.00984 191.07578 176.00984C189.97119 176.00984 189.07578 175.11441 189.07578 174.00984C189.07578 172.90527 189.97119 172.00984 191.07578 172.00984C192.18034 172.00984 193.07578 172.90527 193.07578 174.00984Z" fill-rule="nonzero"/><path fill="#fbbc04" clip-path="url(#id_0)" d="M205.83672 167.75063C205.83672 168.8552 204.94128 169.75063 203.83672 169.75063C202.73213 169.75063 201.83672 168.8552 201.83672 167.75063C201.83672 166.64606 202.73213 165.75063 203.83672 165.75063C204.94128 165.75063 205.83672 166.64606 205.83672 167.75063Z" fill-rule="nonzero"/><path fill="#fbbc04" clip-path="url(#id_0)" d="M218.59766 161.24179C218.59766 162.34636 217.70222 163.24179 216.59766 163.24179C215.49307 163.24179 214.59766 162.34636 214.59766 161.24179C214.59766 160.1372 215.49307 159.24179 216.59766 159.24179C217.70222 159.24179 218.59766 160.1372 218.59766 161.24179Z" fill-rule="nonzero"/><path fill="#fbbc04" clip-path="url(#id_0)" d="M231.3586 155.18964C231.3586 156.29422 230.46317 157.18964 229.3586 157.18964C228.25401 157.18964 227.3586 156.29422 227.3586 155.18964C227.3586 154.08507 228.25401 153.18964 229.3586 153.18964C230.46317 153.18964 231.3586 154.08507 231.3586 155.18964Z" fill-rule="nonzero"/><path fill="#fbbc04" clip-path="url(#id_0)" d="M244.11954 148.6483C244.11954 149.75287 243.2241 150.6483 242.11954 150.6483C241.01495 150.6483 240.11954 149.75287 240.11954 148.6483C240.11954 147.54373 241.01495 146.6483 242.11954 146.6483C243.2241 146.6483 244.11954 147.54373 244.11954 148.6483Z" fill-rule="nonzero"/><path fill="#fbbc04" clip-path="url(#id_0)" d="M256.88046 142.51857C256.88046 143.62314 255.98505 144.51857 254.88046 144.51857C253.7759 144.51857 252.88046 143.62314 252.88046 142.51857C252.88046 141.414 253.7759 140.51857 254.88046 140.51857C255.98505 140.51857 256.88046 141.414 256.88046 142.51857Z" fill-rule="nonzero"/><path fill="#fbbc04" clip-path="url(#id_0)" d="M269.64142 135.93852C269.64142 137.04309 268.74597 137.93852 267.64142 137.93852C266.53683 137.93852 265.64142 137.04309 265.64142 135.93852C265.64142 134.83395 266.53683 133.93852 267.64142 133.93852C268.74597 133.93852 269.64142 134.83395 269.64142 135.93852Z" fill-rule="nonzero"/><path fill="#fbbc04" clip-path="url(#id_0)" d="M282.40234 129.76639C282.40234 130.87096 281.50693 131.76639 280.40234 131.76639C279.2978 131.76639 278.40234 130.87096 278.40234 129.76639C278.40234 128.66182 279.2978 127.76639 280.40234 127.76639C281.50693 127.76639 282.40234 128.66182 282.40234 129.76639Z" fill-rule="nonzero"/><path fill="#fbbc04" clip-path="url(#id_0)" d="M295.1633 123.166824C295.1633 124.27139 294.26785 125.166824 293.1633 125.166824C292.05872 125.166824 291.1633 124.27139 291.1633 123.166824C291.1633 122.062256 292.05872 121.166824 293.1633 121.166824C294.26785 121.166824 295.1633 122.062256 295.1633 123.166824Z" fill-rule="nonzero"/><path fill="#fbbc04" clip-path="url(#id_0)" d="M307.92422 119.86573C307.92422 120.9703 307.0288 121.86573 305.92422 121.86573C304.81967 121.86573 303.92422 120.9703 303.92422 119.86573C303.92422 118.76116 304.81967 117.86573 305.92422 117.86573C307.0288 117.86573 307.92422 118.76116 307.92422 119.86573Z" fill-rule="nonzero"/><path fill="#fbbc04" clip-path="url(#id_0)" d="M320.68518 113.60446C320.68518 114.70903 319.78973 115.60446 318.68518 115.60446C317.5806 115.60446 316.68518 114.70903 316.68518 113.60446C316.68518 112.49989 317.5806 111.60446 318.68518 111.60446C319.78973 111.60446 320.68518 112.49989 320.68518 113.60446Z" fill-rule="nonzero"/><path fill="#fbbc04" clip-path="url(#id_0)" d="M333.4461 104.535904C333.4461 105.64047 332.5507 106.535904 331.4461 106.535904C330.34155 106.535904 329.4461 105.64047 329.4461 104.535904C329.4461 103.431335 330.34155 102.535904 331.4461 102.535904C332.5507 102.535904 333.4461 103.431335 333.4461 104.535904Z" fill-rule="nonzero"/><path fill="#fbbc04" clip-path="url(#id_0)" d="M346.20706 98.02281C346.20706 99.12738 345.3116 100.02281 344.20706 100.02281C343.10248 100.02281 342.20706 99.12738 342.20706 98.02281C342.20706 96.918236 343.10248 96.02281 344.20706 96.02281C345.3116 96.02281 346.20706 96.918236 346.20706 98.02281Z" fill-rule="nonzero"/><path fill="#fbbc04" clip-path="url(#id_0)" d="M358.968 92.10072C358.968 93.20529 358.07257 94.10072 356.968 94.10072C355.86343 94.10072 354.968 93.20529 354.968 92.10072C354.968 90.99615 355.86343 90.10072 356.968 90.10072C358.07257 90.10072 358.968 90.99615 358.968 92.10072Z" fill-rule="nonzero"/><path fill="#fbbc04" clip-path="url(#id_0)" d="M371.72894 85.29976C371.72894 86.40433 370.8335 87.29976 369.72894 87.29976C368.62436 87.29976 367.72894 86.40433 367.72894 85.29976C367.72894 84.19519 368.62436 83.29976 369.72894 83.29976C370.8335 83.29976 371.72894 84.19519 371.72894 85.29976Z" fill-rule="nonzero"/><path fill="#fbbc04" clip-path="url(#id_0)" d="M384.48987 83.23116C384.48987 84.33573 383.59445 85.23116 382.48987 85.23116C381.3853 85.23116 380.48987 84.33573 380.48987 83.23116C380.48987 82.12659 381.3853 81.23116 382.48987 81.23116C383.59445 81.23116 384.48987 82.12659 384.48987 83.23116Z" fill-rule="nonzero"/><path fill="#fbbc04" clip-path="url(#id_0)" d="M397.25082 72.78019C397.25082 73.88476 396.35538 74.78019 395.25082 74.78019C394.14624 74.78019 393.25082 73.88476 393.25082 72.78019C393.25082 71.67562 394.14624 70.78019 395.25082 70.78019C396.35538 70.78019 397.25082 71.67562 397.25082 72.78019Z" fill-rule="nonzero"/><path fill="#fbbc04" clip-path="url(#id_0)" d="M410.01175 81.552124C410.01175 82.65669 409.11633 83.552124 408.01175 83.552124C406.9072 83.552124 406.01175 82.65669 406.01175 81.552124C406.01175 80.447556 406.9072 79.552124 408.01175 79.552124C409.11633 79.552124 410.01175 80.447556 410.01175 81.552124Z" fill-rule="nonzero"/><path fill="#fbbc04" clip-path="url(#id_0)" d="M422.7727 77.57453C422.7727 78.6791 421.87726 79.57453 420.7727 79.57453C419.66812 79.57453 418.7727 78.6791 418.7727 77.57453C418.7727 76.46996 419.66812 75.57453 420.7727 75.57453C421.87726 75.57453 422.7727 76.46996 422.7727 77.57453Z" fill-rule="nonzero"/><path fill="#000000" d="M227.8125 286.75L227.8125 279.60938L225.26562 279.60938L225.26562 278.15625L232.07812 278.15625L232.07812 279.60938L229.54688 279.60938L229.54688 286.75L227.8125 286.75ZM234.5 278.15625L234.5 281.3125Q235.29688 280.39062 236.40625 280.39062Q236.96875 280.39062 237.42188 280.60938Q237.89062 280.8125 238.125 281.14062Q238.35938 281.46875 238.4375 281.875Q238.51562 282.26562 238.51562 283.09375L238.51562 286.75L236.875 286.75L236.875 283.46875Q236.875 282.48438 236.78125 282.21875Q236.6875 281.95312 236.45312 281.79688Q236.21875 281.64062 235.85938 281.64062Q235.45312 281.64062 235.125 281.84375Q234.79688 282.04688 234.64062 282.45312Q234.5 282.84375 234.5 283.625L234.5 286.75L232.85938 286.75L232.85938 278.15625L234.5 278.15625ZM241.4375 286.75L239.79688 286.75L239.79688 280.53125L241.32812 280.53125L241.32812 281.40625Q241.71875 280.78125 242.03125 280.59375Q242.34375 280.39062 242.73438 280.39062Q243.29688 280.39062 243.82812 280.70312L243.3125 282.125Q242.89062 281.85938 242.54688 281.85938Q242.1875 281.85938 241.95312 282.0625Q241.71875 282.25 241.57812 282.75Q241.4375 283.23438 241.4375 284.82812L241.4375 286.75ZM248.46875 284.76562L250.10938 285.04688Q249.79688 285.95312 249.10938 286.42188Q248.42188 286.89062 247.40625 286.89062Q245.78125 286.89062 245.0 285.82812Q244.375 284.98438 244.375 283.6875Q244.375 282.14062 245.1875 281.26562Q246.0 280.39062 247.23438 280.39062Q248.625 280.39062 249.42188 281.3125Q250.23438 282.21875 250.1875 284.10938L246.0625 284.10938Q246.09375 284.84375 246.46875 285.25Q246.84375 285.65625 247.42188 285.65625Q247.79688 285.65625 248.0625 285.45312Q248.32812 285.23438 248.46875 284.76562ZM248.5625 283.10938Q248.54688 282.39062 248.1875 282.01562Q247.84375 281.64062 247.32812 281.64062Q246.79688 281.64062 246.4375 282.03125Q246.09375 282.4375 246.09375 283.10938L248.5625 283.10938ZM253.09375 282.42188L251.59375 282.15625Q251.84375 281.25 252.45312 280.82812Q253.07812 280.39062 254.29688 280.39062Q255.39062 280.39062 255.92188 280.65625Q256.46875 280.90625 256.6875 281.3125Q256.90625 281.70312 256.90625 282.78125L256.89062 284.70312Q256.89062 285.53125 256.96875 285.92188Q257.04688 286.29688 257.26562 286.75L255.64062 286.75Q255.57812 286.57812 255.48438 286.26562Q255.4375 286.10938 255.42188 286.0625Q255.0 286.48438 254.51562 286.6875Q254.04688 286.89062 253.5 286.89062Q252.53125 286.89062 251.96875 286.375Q251.42188 285.84375 251.42188 285.04688Q251.42188 284.51562 251.67188 284.10938Q251.9375 283.70312 252.39062 283.48438Q252.84375 283.25 253.70312 283.09375Q254.84375 282.875 255.29688 282.6875L255.29688 282.53125Q255.29688 282.04688 255.0625 281.84375Q254.82812 281.64062 254.17188 281.64062Q253.73438 281.64062 253.48438 281.8125Q253.25 281.98438 253.09375 282.42188ZM255.29688 283.76562Q254.98438 283.85938 254.29688 284.01562Q253.60938 284.15625 253.39062 284.29688Q253.07812 284.53125 253.07812 284.875Q253.07812 285.21875 253.32812 285.48438Q253.59375 285.73438 253.98438 285.73438Q254.4375 285.73438 254.84375 285.4375Q255.14062 285.21875 255.23438 284.89062Q255.29688 284.6875 255.29688 284.09375L255.29688 283.76562ZM264.5625 286.75L263.04688 286.75L263.04688 285.82812Q262.65625 286.375 262.14062 286.64062Q261.625 286.89062 261.09375 286.89062Q260.01562 286.89062 259.25 286.03125Q258.5 285.15625 258.5 283.60938Q258.5 282.03125 259.23438 281.21875Q259.98438 280.39062 261.125 280.39062Q262.15625 280.39062 262.92188 281.25L262.92188 278.15625L264.5625 278.15625L264.5625 286.75ZM260.17188 283.5Q260.17188 284.5 260.45312 284.9375Q260.84375 285.59375 261.5625 285.59375Q262.125 285.59375 262.51562 285.10938Q262.92188 284.625 262.92188 283.65625Q262.92188 282.59375 262.53125 282.125Q262.15625 281.64062 261.54688 281.64062Q260.96875 281.64062 260.5625 282.10938Q260.17188 282.57812 260.17188 283.5ZM265.28125 284.96875L266.9375 284.71875Q267.04688 285.20312 267.35938 285.45312Q267.6875 285.70312 268.26562 285.70312Q268.90625 285.70312 269.21875 285.46875Q269.4375 285.29688 269.4375 285.03125Q269.4375 284.84375 269.32812 284.71875Q269.20312 284.59375 268.78125 284.5Q266.78125 284.0625 266.25 283.70312Q265.51562 283.1875 265.51562 282.29688Q265.51562 281.48438 266.14062 280.9375Q266.78125 280.39062 268.125 280.39062Q269.40625 280.39062 270.03125 280.8125Q270.65625 281.21875 270.89062 282.03125L269.32812 282.3125Q269.23438 281.95312 268.95312 281.76562Q268.67188 281.5625 268.15625 281.5625Q267.51562 281.5625 267.23438 281.75Q267.04688 281.875 267.04688 282.07812Q267.04688 282.26562 267.20312 282.39062Q267.42188 282.54688 268.73438 282.84375Q270.0625 283.14062 270.57812 283.57812Q271.09375 284.01562 271.09375 284.79688Q271.09375 285.65625 270.375 286.28125Q269.67188 286.89062 268.26562 286.89062Q267.0 286.89062 266.25 286.375Q265.51562 285.85938 265.28125 284.96875Z" fill-rule="nonzero"/><path fill="#000000" d="M26.25 249.86458L26.25 251.5052L20.046875 251.5052Q20.890625 252.41145 21.296875 253.6302L19.796875 253.6302Q19.59375 252.98958 19.0 252.23958Q18.40625 251.47395 17.625 251.1927L17.625 249.86458L26.25 249.86458ZM20.03125 240.8646L21.34375 240.8646L21.34375 241.98958L23.84375 241.98958Q24.609375 241.98958 24.734375 241.95833Q24.859375 241.92708 24.953125 241.8177Q25.03125 241.6927 25.03125 241.53645Q25.03125 241.30208 24.859375 240.88022L26.140625 240.7396Q26.390625 241.30208 26.390625 242.03645Q26.390625 242.47395 26.25 242.83333Q26.09375 243.1927 25.859375 243.36458Q25.609375 243.52083 25.21875 243.59895Q24.921875 243.64583 24.046875 243.64583L21.34375 243.64583L21.34375 244.39583L20.03125 244.39583L20.03125 243.64583L18.796875 243.64583L17.828125 241.98958L20.03125 241.98958L20.03125 240.8646ZM17.65625 238.08334L20.8125 238.08334Q19.890625 237.28647 19.890625 236.1771Q19.890625 235.6146 20.109375 235.16147Q20.3125 234.69272 20.640625 234.45834Q20.96875 234.22397 21.375 234.14584Q21.765625 234.06772 22.59375 234.06772L26.25 234.06772L26.25 235.70834L22.96875 235.70834Q21.984375 235.70834 21.71875 235.8021Q21.453125 235.89584 21.296875 236.13022Q21.140625 236.3646 21.140625 236.72397Q21.140625 237.13022 21.34375 237.45834Q21.546875 237.78647 21.953125 237.94272Q22.34375 238.08334 23.125 238.08334L26.25 238.08334L26.25 239.72397L17.65625 239.72397L17.65625 238.08334ZM26.25 231.14584L26.25 232.78647L20.03125 232.78647L20.03125 231.25522L20.90625 231.25522Q20.28125 230.8646 20.09375 230.5521Q19.890625 230.2396 19.890625 229.84897Q19.890625 229.28647 20.203125 228.75522L21.625 229.27084Q21.359375 229.69272 21.359375 230.03647Q21.359375 230.39584 21.5625 230.63022Q21.75 230.8646 22.25 231.00522Q22.734375 231.14584 24.328125 231.14584L26.25 231.14584ZM24.265625 224.1146L24.546875 222.47397Q25.453125 222.78647 25.921875 223.47397Q26.390625 224.16147 26.390625 225.1771Q26.390625 226.8021 25.328125 227.58334Q24.484375 228.20834 23.1875 228.20834Q21.640625 228.20834 20.765625 227.39584Q19.890625 226.58334 19.890625 225.34897Q19.890625 223.95834 20.8125 223.16147Q21.71875 222.34897 23.609375 222.39584L23.609375 226.52084Q24.34375 226.4896 24.75 226.1146Q25.15625 225.7396 25.15625 225.16147Q25.15625 224.78647 24.953125 224.52084Q24.734375 224.25522 24.265625 224.1146ZM22.609375 224.02084Q21.890625 224.03647 21.515625 224.39584Q21.140625 224.7396 21.140625 225.25522Q21.140625 225.78647 21.53125 226.14584Q21.9375 226.4896 22.609375 226.4896L22.609375 224.02084ZM21.921875 219.4896L21.65625 220.9896Q20.75 220.7396 20.328125 220.13022Q19.890625 219.50522 19.890625 218.28647Q19.890625 217.19272 20.15625 216.66147Q20.40625 216.1146 20.8125 215.89584Q21.203125 215.6771 22.28125 215.6771L24.203125 215.69272Q25.03125 215.69272 25.421875 215.6146Q25.796875 215.53647 26.25 215.31772L26.25 216.94272Q26.078125 217.00522 25.765625 217.09897Q25.609375 217.14584 25.5625 217.16147Q25.984375 217.58334 26.1875 218.06772Q26.390625 218.53647 26.390625 219.08334Q26.390625 220.0521 25.875 220.6146Q25.34375 221.16147 24.546875 221.16147Q24.015625 221.16147 23.609375 220.91147Q23.203125 220.64584 22.984375 220.19272Q22.75 219.7396 22.59375 218.88022Q22.375 217.7396 22.1875 217.28647L22.03125 217.28647Q21.546875 217.28647 21.34375 217.52084Q21.140625 217.75522 21.140625 218.41147Q21.140625 218.84897 21.3125 219.09897Q21.484375 219.33334 21.921875 219.4896ZM23.265625 217.28647Q23.359375 217.59897 23.515625 218.28647Q23.65625 218.97397 23.796875 219.19272Q24.03125 219.50522 24.375 219.50522Q24.71875 219.50522 24.984375 219.25522Q25.234375 218.9896 25.234375 218.59897Q25.234375 218.14584 24.9375 217.7396Q24.71875 217.44272 24.390625 217.34897Q24.1875 217.28647 23.59375 217.28647L23.265625 217.28647ZM26.25 208.02084L26.25 209.53647L25.328125 209.53647Q25.875 209.9271 26.140625 210.44272Q26.390625 210.95834 26.390625 211.4896Q26.390625 212.56772 25.53125 213.33334Q24.65625 214.08334 23.109375 214.08334Q21.53125 214.08334 20.71875 213.34897Q19.890625 212.59897 19.890625 211.45834Q19.890625 210.4271 20.75 209.66147L17.65625 209.66147L17.65625 208.02084L26.25 208.02084ZM23.0 212.41147Q24.0 212.41147 24.4375 212.13022Q25.09375 211.7396 25.09375 211.02084Q25.09375 210.45834 24.609375 210.06772Q24.125 209.66147 23.15625 209.66147Q22.09375 209.66147 21.625 210.0521Q21.140625 210.4271 21.140625 211.03647Q21.140625 211.6146 21.609375 212.02084Q22.078125 212.41147 23.0 212.41147ZM26.25 202.14584L26.25 203.78647L20.03125 203.78647L20.03125 202.25522L20.90625 202.25522Q20.28125 201.8646 20.09375 201.5521Q19.890625 201.2396 19.890625 200.84897Q19.890625 200.28647 20.203125 199.75522L21.625 200.27084Q21.359375 200.69272 21.359375 201.03647Q21.359375 201.39584 21.5625 201.63022Q21.75 201.8646 22.25 202.00522Q22.734375 202.14584 24.328125 202.14584L26.25 202.14584ZM26.25 194.63022L25.3125 194.63022Q25.8125 194.95834 26.109375 195.52084Q26.390625 196.06772 26.390625 196.69272Q26.390625 197.31772 26.125 197.81772Q25.84375 198.31772 25.34375 198.53647Q24.84375 198.75522 23.96875 198.75522L20.03125 198.75522L20.03125 197.1146L22.890625 197.1146Q24.203125 197.1146 24.5 197.02084Q24.796875 196.9271 24.96875 196.69272Q25.140625 196.44272 25.140625 196.08334Q25.140625 195.66147 24.90625 195.33334Q24.671875 194.9896 24.328125 194.8646Q23.984375 194.7396 22.65625 194.7396L20.03125 194.7396L20.03125 193.09897L26.25 193.09897L26.25 194.63022ZM26.25 186.06772L26.25 187.70834L23.078125 187.70834Q22.0625 187.70834 21.765625 187.81772Q21.46875 187.91147 21.3125 188.16147Q21.140625 188.39584 21.140625 188.72397Q21.140625 189.16147 21.375 189.50522Q21.609375 189.83334 22.0 189.95834Q22.390625 190.08334 23.4375 190.08334L26.25 190.08334L26.25 191.7396L20.03125 191.7396L20.03125 190.20834L20.9375 190.20834Q19.890625 189.39584 19.890625 188.14584Q19.890625 187.6146 20.09375 187.16147Q20.28125 186.70834 20.59375 186.47397Q20.890625 186.2396 21.28125 186.16147Q21.65625 186.06772 22.375 186.06772L26.25 186.06772ZM20.03125 181.8646L21.34375 181.8646L21.34375 182.9896L23.84375 182.9896Q24.609375 182.9896 24.734375 182.95834Q24.859375 182.9271 24.953125 182.81772Q25.03125 182.69272 25.03125 182.53647Q25.03125 182.3021 24.859375 181.88022L26.140625 181.7396Q26.390625 182.3021 26.390625 183.03647Q26.390625 183.47397 26.25 183.83334Q26.09375 184.19272 25.859375 184.3646Q25.609375 184.52084 25.21875 184.59897Q24.921875 184.64584 24.046875 184.64584L21.34375 184.64584L21.34375 185.39584L20.03125 185.39584L20.03125 184.64584L18.796875 184.64584L17.828125 182.9896L20.03125 182.9896L20.03125 181.8646ZM19.1875 180.72397L17.65625 180.72397L17.65625 179.06772L19.1875 179.06772L19.1875 180.72397ZM26.25 180.72397L20.03125 180.72397L20.03125 179.06772L26.25 179.06772L26.25 180.72397ZM20.03125 177.84897L20.03125 176.33334L20.875 176.33334Q19.890625 175.50522 19.890625 174.38022Q19.890625 173.78647 20.140625 173.34897Q20.375 172.91147 20.875 172.63022Q20.375 172.22397 20.140625 171.75522Q19.890625 171.27084 19.890625 170.72397Q19.890625 170.0521 20.171875 169.58334Q20.4375 169.09897 20.984375 168.8646Q21.375 168.69272 22.265625 168.69272L26.25 168.69272L26.25 170.33334L22.6875 170.33334Q21.765625 170.33334 21.5 170.50522Q21.140625 170.7396 21.140625 171.20834Q21.140625 171.5521 21.359375 171.8646Q21.5625 172.16147 21.96875 172.3021Q22.375 172.44272 23.265625 172.44272L26.25 172.44272L26.25 174.08334L22.84375 174.08334Q21.9375 174.08334 21.671875 174.1771Q21.40625 174.25522 21.28125 174.44272Q21.140625 174.63022 21.140625 174.94272Q21.140625 175.31772 21.359375 175.63022Q21.5625 175.9271 21.953125 176.06772Q22.328125 176.19272 23.21875 176.19272L26.25 176.19272L26.25 177.84897L20.03125 177.84897ZM24.265625 163.1146L24.546875 161.47397Q25.453125 161.78647 25.921875 162.47397Q26.390625 163.16147 26.390625 164.1771Q26.390625 165.8021 25.328125 166.58334Q24.484375 167.20834 23.1875 167.20834Q21.640625 167.20834 20.765625 166.39584Q19.890625 165.58334 19.890625 164.34897Q19.890625 162.95834 20.8125 162.16147Q21.71875 161.34897 23.609375 161.39584L23.609375 165.52084Q24.34375 165.4896 24.75 165.1146Q25.15625 164.7396 25.15625 164.16147Q25.15625 163.78647 24.953125 163.52084Q24.734375 163.25522 24.265625 163.1146ZM22.609375 163.02084Q21.890625 163.03647 21.515625 163.39584Q21.140625 163.7396 21.140625 164.25522Q21.140625 164.78647 21.53125 165.14584Q21.9375 165.4896 22.609375 165.4896L22.609375 163.02084ZM26.390625 157.59897L17.515625 155.47397L17.515625 154.2396L26.390625 156.38022L26.390625 157.59897ZM26.25 145.06772L26.25 146.70834L23.078125 146.70834Q22.0625 146.70834 21.765625 146.81772Q21.46875 146.91147 21.3125 147.16147Q21.140625 147.39584 21.140625 147.72397Q21.140625 148.16147 21.375 148.50522Q21.609375 148.83334 22.0 148.95834Q22.390625 149.08334 23.4375 149.08334L26.25 149.08334L26.25 150.7396L20.03125 150.7396L20.03125 149.20834L20.9375 149.20834Q19.890625 148.39584 19.890625 147.14584Q19.890625 146.6146 20.09375 146.16147Q20.28125 145.70834 20.59375 145.47397Q20.890625 145.2396 21.28125 145.16147Q21.65625 145.06772 22.375 145.06772L26.25 145.06772ZM23.953125 143.91145L22.3125 143.91145L22.3125 140.67708L23.953125 140.67708L23.953125 143.91145ZM20.03125 136.86458L21.34375 136.86458L21.34375 137.98958L23.84375 137.98958Q24.609375 137.98958 24.734375 137.95833Q24.859375 137.92708 24.953125 137.8177Q25.03125 137.6927 25.03125 137.53645Q25.03125 137.30208 24.859375 136.8802L26.140625 136.73958Q26.390625 137.30208 26.390625 138.03645Q26.390625 138.47395 26.25 138.83333Q26.09375 139.1927 25.859375 139.36458Q25.609375 139.52083 25.21875 139.59895Q24.921875 139.64583 24.046875 139.64583L21.34375 139.64583L21.34375 140.39583L20.03125 140.39583L20.03125 139.64583L18.796875 139.64583L17.828125 137.98958L20.03125 137.98958L20.03125 136.86458ZM17.65625 134.08333L20.8125 134.08333Q19.890625 133.28645 19.890625 132.17708Q19.890625 131.61458 20.109375 131.16145Q20.3125 130.6927 20.640625 130.45833Q20.96875 130.22395 21.375 130.14583Q21.765625 130.0677 22.59375 130.0677L26.25 130.0677L26.25 131.70833L22.96875 131.70833Q21.984375 131.70833 21.71875 131.80208Q21.453125 131.89583 21.296875 132.1302Q21.140625 132.36458 21.140625 132.72395Q21.140625 133.1302 21.34375 133.45833Q21.546875 133.78645 21.953125 133.9427Q22.34375 134.08333 23.125 134.08333L26.25 134.08333L26.25 135.72395L17.65625 135.72395L17.65625 134.08333ZM26.25 127.14583L26.25 128.78645L20.03125 128.78645L20.03125 127.2552L20.90625 127.2552Q20.28125 126.86458 20.09375 126.55208Q19.890625 126.23958 19.890625 125.84895Q19.890625 125.28645 20.203125 124.7552L21.625 125.27083Q21.359375 125.6927 21.359375 126.03645Q21.359375 126.39583 21.5625 126.6302Q21.75 126.86458 22.25 127.0052Q22.734375 127.14583 24.328125 127.14583L26.25 127.14583ZM24.265625 120.11458L24.546875 118.47395Q25.453125 118.78645 25.921875 119.47395Q26.390625 120.16145 26.390625 121.17708Q26.390625 122.80208 25.328125 123.58333Q24.484375 124.20833 23.1875 124.20833Q21.640625 124.20833 20.765625 123.39583Q19.890625 122.58333 19.890625 121.34895Q19.890625 119.95833 20.8125 119.16145Q21.71875 118.34895 23.609375 118.39583L23.609375 122.52083Q24.34375 122.48958 24.75 122.11458Q25.15625 121.73958 25.15625 121.16145Q25.15625 120.78645 24.953125 120.52083Q24.734375 120.2552 24.265625 120.11458ZM22.609375 120.02083Q21.890625 120.03645 21.515625 120.39583Q21.140625 120.73958 21.140625 121.2552Q21.140625 121.78645 21.53125 122.14583Q21.9375 122.48958 22.609375 122.48958L22.609375 120.02083ZM21.921875 115.48958L21.65625 116.98958Q20.75 116.73958 20.328125 116.1302Q19.890625 115.5052 19.890625 114.28645Q19.890625 113.1927 20.15625 112.66145Q20.40625 112.11458 20.8125 111.89583Q21.203125 111.67708 22.28125 111.67708L24.203125 111.6927Q25.03125 111.6927 25.421875 111.61458Q25.796875 111.53645 26.25 111.3177L26.25 112.9427Q26.078125 113.0052 25.765625 113.09895Q25.609375 113.14583 25.5625 113.16145Q25.984375 113.58333 26.1875 114.0677Q26.390625 114.53645 26.390625 115.08333Q26.390625 116.05208 25.875 116.61458Q25.34375 117.16145 24.546875 117.16145Q24.015625 117.16145 23.609375 116.91145Q23.203125 116.64583 22.984375 116.1927Q22.75 115.73958 22.59375 114.8802Q22.375 113.73958 22.1875 113.28645L22.03125 113.28645Q21.546875 113.28645 21.34375 113.52083Q21.140625 113.7552 21.140625 114.41145Q21.140625 114.84895 21.3125 115.09895Q21.484375 115.33333 21.921875 115.48958ZM23.265625 113.28645Q23.359375 113.59895 23.515625 114.28645Q23.65625 114.97395 23.796875 115.1927Q24.03125 115.5052 24.375 115.5052Q24.71875 115.5052 24.984375 115.2552Q25.234375 114.98958 25.234375 114.59895Q25.234375 114.14583 24.9375 113.73958Q24.71875 113.4427 24.390625 113.34895Q24.1875 113.28645 23.59375 113.28645L23.265625 113.28645ZM26.25 104.02083L26.25 105.53645L25.328125 105.53645Q25.875 105.92708 26.140625 106.4427Q26.390625 106.95833 26.390625 107.48958Q26.390625 108.5677 25.53125 109.33333Q24.65625 110.08333 23.109375 110.08333Q21.53125 110.08333 20.71875 109.34895Q19.890625 108.59895 19.890625 107.45833Q19.890625 106.42708 20.75 105.66145L17.65625 105.66145L17.65625 104.02083L26.25 104.02083ZM23.0 108.41145Q24.0 108.41145 24.4375 108.1302Q25.09375 107.73958 25.09375 107.02083Q25.09375 106.45833 24.609375 106.0677Q24.125 105.66145 23.15625 105.66145Q22.09375 105.66145 21.625 106.05208Q21.140625 106.42708 21.140625 107.03645Q21.140625 107.61458 21.609375 108.02083Q22.078125 108.41145 23.0 108.41145ZM24.265625 99.11458L24.546875 97.47395Q25.453125 97.78645 25.921875 98.47395Q26.390625 99.16145 26.390625 100.17708Q26.390625 101.80208 25.328125 102.58333Q24.484375 103.20833 23.1875 103.20833Q21.640625 103.20833 20.765625 102.39583Q19.890625 101.58333 19.890625 100.34895Q19.890625 98.95833 20.8125 98.16145Q21.71875 97.34895 23.609375 97.39583L23.609375 101.52083Q24.34375 101.48958 24.75 101.11458Q25.15625 100.73958 25.15625 100.16145Q25.15625 99.78645 24.953125 99.52083Q24.734375 99.2552 24.265625 99.11458ZM22.609375 99.02083Q21.890625 99.03645 21.515625 99.39583Q21.140625 99.73958 21.140625 100.2552Q21.140625 100.78645 21.53125 101.14583Q21.9375 101.48958 22.609375 101.48958L22.609375 99.02083ZM26.25 90.02083L26.25 91.53645L25.328125 91.53645Q25.875 91.92708 26.140625 92.4427Q26.390625 92.95833 26.390625 93.48958Q26.390625 94.5677 25.53125 95.33333Q24.65625 96.08333 23.109375 96.08333Q21.53125 96.08333 20.71875 95.34895Q19.890625 94.59895 19.890625 93.45833Q19.890625 92.42708 20.75 91.66145L17.65625 91.66145L17.65625 90.02083L26.25 90.02083ZM23.0 94.41145Q24.0 94.41145 24.4375 94.1302Q25.09375 93.73958 25.09375 93.02083Q25.09375 92.45833 24.609375 92.0677Q24.125 91.66145 23.15625 91.66145Q22.09375 91.66145 21.625 92.05208Q21.140625 92.42708 21.140625 93.03645Q21.140625 93.61458 21.609375 94.02083Q22.078125 94.41145 23.0 94.41145ZM26.25 84.14583L26.25 85.78645L20.03125 85.78645L20.03125 84.2552L20.90625 84.2552Q20.28125 83.86458 20.09375 83.55208Q19.890625 83.23958 19.890625 82.84895Q19.890625 82.28645 20.203125 81.7552L21.625 82.27083Q21.359375 82.6927 21.359375 83.03645Q21.359375 83.39583 21.5625 83.6302Q21.75 83.86458 22.25 84.0052Q22.734375 84.14583 24.328125 84.14583L26.25 84.14583ZM26.25 76.6302L25.3125 76.6302Q25.8125 76.95833 26.109375 77.52083Q26.390625 78.0677 26.390625 78.6927Q26.390625 79.3177 26.125 79.8177Q25.84375 80.3177 25.34375 80.53645Q24.84375 80.7552 23.96875 80.7552L20.03125 80.7552L20.03125 79.11458L22.890625 79.11458Q24.203125 79.11458 24.5 79.02083Q24.796875 78.92708 24.96875 78.6927Q25.140625 78.4427 25.140625 78.08333Q25.140625 77.66145 24.90625 77.33333Q24.671875 76.98958 24.328125 76.86458Q23.984375 76.73958 22.65625 76.73958L20.03125 76.73958L20.03125 75.09895L26.25 75.09895L26.25 76.6302ZM26.25 68.0677L26.25 69.70833L23.078125 69.70833Q22.0625 69.70833 21.765625 69.8177Q21.46875 69.91145 21.3125 70.16145Q21.140625 70.39583 21.140625 70.72395Q21.140625 71.16145 21.375 71.5052Q21.609375 71.83333 22.0 71.95833Q22.390625 72.08333 23.4375 72.08333L26.25 72.08333L26.25 73.73958L20.03125 73.73958L20.03125 72.20833L20.9375 72.20833Q19.890625 71.39583 19.890625 70.14583Q19.890625 69.61458 20.09375 69.16145Q20.28125 68.70833 20.59375 68.47395Q20.890625 68.23958 21.28125 68.16145Q21.65625 68.0677 22.375 68.0677L26.25 68.0677ZM20.03125 63.86458L21.34375 63.86458L21.34375 64.98958L23.84375 64.98958Q24.609375 64.98958 24.734375 64.95833Q24.859375 64.92708 24.953125 64.8177Q25.03125 64.6927 25.03125 64.53645Q25.03125 64.30208 24.859375 63.880203L26.140625 63.73958Q26.390625 64.30208 26.390625 65.03645Q26.390625 65.47395 26.25 65.83333Q26.09375 66.1927 25.859375 66.36458Q25.609375 66.52083 25.21875 66.59895Q24.921875 66.64583 24.046875 66.64583L21.34375 66.64583L21.34375 67.39583L20.03125 67.39583L20.03125 66.64583L18.796875 66.64583L17.828125 64.98958L20.03125 64.98958L20.03125 63.86458ZM19.1875 62.723953L17.65625 62.723953L17.65625 61.067703L19.1875 61.067703L19.1875 62.723953ZM26.25 62.723953L20.03125 62.723953L20.03125 61.067703L26.25 61.067703L26.25 62.723953ZM20.03125 59.848953L20.03125 58.33333L20.875 58.33333Q19.890625 57.505203 19.890625 56.380203Q19.890625 55.786453 20.140625 55.348953Q20.375 54.911453 20.875 54.630203Q20.375 54.223953 20.140625 53.755203Q19.890625 53.27083 19.890625 52.723953Q19.890625 52.05208 20.171875 51.58333Q20.4375 51.098953 20.984375 50.86458Q21.375 50.692703 22.265625 50.692703L26.25 50.692703L26.25 52.33333L22.6875 52.33333Q21.765625 52.33333 21.5 52.505203Q21.140625 52.73958 21.140625 53.20833Q21.140625 53.55208 21.359375 53.86458Q21.5625 54.161453 21.96875 54.30208Q22.375 54.442703 23.265625 54.442703L26.25 54.442703L26.25 56.08333L22.84375 56.08333Q21.9375 56.08333 21.671875 56.17708Q21.40625 56.255203 21.28125 56.442703Q21.140625 56.630203 21.140625 56.942703Q21.140625 57.317703 21.359375 57.630203Q21.5625 57.92708 21.953125 58.067703Q22.328125 58.192703 23.21875 58.192703L26.25 58.192703L26.25 59.848953L20.03125 59.848953ZM24.265625 45.11458L24.546875 43.473953Q25.453125 43.786453 25.921875 44.473953Q26.390625 45.161453 26.390625 46.17708Q26.390625 47.80208 25.328125 48.58333Q24.484375 49.20833 23.1875 49.20833Q21.640625 49.20833 20.765625 48.39583Q19.890625 47.58333 19.890625 46.348953Q19.890625 44.95833 20.8125 44.161453Q21.71875 43.348953 23.609375 43.39583L23.609375 47.52083Q24.34375 47.48958 24.75 47.11458Q25.15625 46.73958 25.15625 46.161453Q25.15625 45.786453 24.953125 45.52083Q24.734375 45.255203 24.265625 45.11458ZM22.609375 45.02083Q21.890625 45.036453 21.515625 45.39583Q21.140625 45.73958 21.140625 46.255203Q21.140625 46.786453 21.53125 47.14583Q21.9375 47.48958 22.609375 47.48958L22.609375 45.02083Z" fill-rule="nonzero"/><path fill="#000000" d="M61.75 237.51562Q61.75 235.98438 62.0625 235.0625Q62.375 234.125 62.984375 233.625Q63.609375 233.125 64.546875 233.125Q65.234375 233.125 65.75 233.40625Q66.28125 233.6875 66.625 234.21875Q66.96875 234.73438 67.15625 235.48438Q67.34375 236.23438 67.34375 237.51562Q67.34375 239.03125 67.03125 239.95312Q66.734375 240.875 66.109375 241.39062Q65.5 241.89062 64.546875 241.89062Q63.3125 241.89062 62.59375 241.0Q61.75 239.9375 61.75 237.51562ZM62.828125 237.51562Q62.828125 239.625 63.328125 240.32812Q63.828125 241.03125 64.546875 241.03125Q65.28125 241.03125 65.765625 240.32812Q66.265625 239.625 66.265625 237.51562Q66.265625 235.39062 65.765625 234.70312Q65.28125 234.0 64.53125 234.0Q63.8125 234.0 63.375 234.60938Q62.828125 235.39062 62.828125 237.51562Z" fill-rule="nonzero"/><path fill="#000000" d="M58.71875 177.97223L57.671875 177.97223L57.671875 171.25348Q57.28125 171.61285 56.65625 171.98785Q56.046875 172.34723 55.5625 172.5191L55.5625 171.50348Q56.4375 171.0816 57.09375 170.50348Q57.765625 169.90973 58.046875 169.34723L58.71875 169.34723L58.71875 177.97223ZM61.75 173.73785Q61.75 172.2066 62.0625 171.28473Q62.375 170.34723 62.984375 169.84723Q63.609375 169.34723 64.546875 169.34723Q65.234375 169.34723 65.75 169.62848Q66.28125 169.90973 66.625 170.44098Q66.96875 170.9566 67.15625 171.7066Q67.34375 172.4566 67.34375 173.73785Q67.34375 175.25348 67.03125 176.17535Q66.734375 177.09723 66.109375 177.61285Q65.5 178.11285 64.546875 178.11285Q63.3125 178.11285 62.59375 177.22223Q61.75 176.15973 61.75 173.73785ZM62.828125 173.73785Q62.828125 175.84723 63.328125 176.55035Q63.828125 177.25348 64.546875 177.25348Q65.28125 177.25348 65.765625 176.55035Q66.265625 175.84723 66.265625 173.73785Q66.265625 171.61285 65.765625 170.92535Q65.28125 170.22223 64.53125 170.22223Q63.8125 170.22223 63.375 170.8316Q62.828125 171.61285 62.828125 173.73785Z" fill-rule="nonzero"/><path fill="#000000" d="M60.296875 113.17882L60.296875 114.19444L54.609375 114.19444Q54.609375 113.81944 54.734375 113.46007Q54.953125 112.88194 55.421875 112.31944Q55.90625 111.75694 56.8125 111.02257Q58.21875 109.86632 58.703125 109.19444Q59.203125 108.52257 59.203125 107.92882Q59.203125 107.30382 58.75 106.88194Q58.296875 106.44444 57.578125 106.44444Q56.8125 106.44444 56.359375 106.89757Q55.90625 107.35069 55.890625 108.16319L54.8125 108.05382Q54.921875 106.83507 55.640625 106.21007Q56.375 105.56944 57.609375 105.56944Q58.84375 105.56944 59.5625 106.25694Q60.28125 106.94444 60.28125 107.96007Q60.28125 108.47569 60.0625 108.97569Q59.859375 109.46007 59.359375 110.02257Q58.875 110.56944 57.75 111.52257Q56.796875 112.31944 56.515625 112.61632Q56.25 112.89757 56.078125 113.17882L60.296875 113.17882ZM61.75 109.96007Q61.75 108.42882 62.0625 107.50694Q62.375 106.56944 62.984375 106.06944Q63.609375 105.56944 64.546875 105.56944Q65.234375 105.56944 65.75 105.85069Q66.28125 106.13194 66.625 106.66319Q66.96875 107.17882 67.15625 107.92882Q67.34375 108.67882 67.34375 109.96007Q67.34375 111.47569 67.03125 112.39757Q66.734375 113.31944 66.109375 113.83507Q65.5 114.33507 64.546875 114.33507Q63.3125 114.33507 62.59375 113.44444Q61.75 112.38194 61.75 109.96007ZM62.828125 109.96007Q62.828125 112.06944 63.328125 112.77257Q63.828125 113.47569 64.546875 113.47569Q65.28125 113.47569 65.765625 112.77257Q66.265625 112.06944 66.265625 109.96007Q66.265625 107.83507 65.765625 107.14757Q65.28125 106.44444 64.53125 106.44444Q63.8125 106.44444 63.375 107.05382Q62.828125 107.83507 62.828125 109.96007Z" fill-rule="nonzero"/><path fill="#000000" d="M54.75 48.151043L55.8125 48.010418Q55.984375 48.901043 56.421875 49.307293Q56.859375 49.697918 57.484375 49.697918Q58.234375 49.697918 58.75 49.182293Q59.265625 48.666668 59.265625 47.901043Q59.265625 47.182293 58.78125 46.713543Q58.3125 46.229168 57.578125 46.229168Q57.28125 46.229168 56.828125 46.354168L56.953125 45.416668Q57.0625 45.432293 57.125 45.432293Q57.796875 45.432293 58.328125 45.088543Q58.875 44.729168 58.875 43.994793Q58.875 43.416668 58.484375 43.041668Q58.09375 42.651043 57.46875 42.651043Q56.859375 42.651043 56.4375 43.041668Q56.03125 43.432293 55.921875 44.197918L54.859375 44.010418Q55.046875 42.963543 55.734375 42.385418Q56.421875 41.791668 57.4375 41.791668Q58.140625 41.791668 58.734375 42.104168Q59.328125 42.401043 59.640625 42.916668Q59.953125 43.432293 59.953125 44.026043Q59.953125 44.572918 59.65625 45.041668Q59.359375 45.494793 58.78125 45.760418Q59.53125 45.932293 59.953125 46.494793Q60.375 47.041668 60.375 47.885418Q60.375 49.010418 59.546875 49.791668Q58.734375 50.572918 57.484375 50.572918Q56.359375 50.572918 55.609375 49.901043Q54.859375 49.213543 54.75 48.151043ZM61.75 46.182293Q61.75 44.651043 62.0625 43.729168Q62.375 42.791668 62.984375 42.291668Q63.609375 41.791668 64.546875 41.791668Q65.234375 41.791668 65.75 42.072918Q66.28125 42.354168 66.625 42.885418Q66.96875 43.401043 67.15625 44.151043Q67.34375 44.901043 67.34375 46.182293Q67.34375 47.697918 67.03125 48.619793Q66.734375 49.541668 66.109375 50.057293Q65.5 50.557293 64.546875 50.557293Q63.3125 50.557293 62.59375 49.666668Q61.75 48.604168 61.75 46.182293ZM62.828125 46.182293Q62.828125 48.291668 63.328125 48.994793Q63.828125 49.697918 64.546875 49.697918Q65.28125 49.697918 65.765625 48.994793Q66.265625 48.291668 66.265625 46.182293Q66.265625 44.057293 65.765625 43.369793Q65.28125 42.666668 64.53125 42.666668Q63.8125 42.666668 63.375 43.276043Q62.828125 44.057293 62.828125 46.182293Z" fill-rule="nonzero"/><path fill="#000000" d="M124.271065 252.5L125.38044 252.40625Q125.50544 253.21875 125.94294 253.625Q126.396065 254.03125 127.03669 254.03125Q127.78669 254.03125 128.31793 253.45312Q128.84918 252.875 128.84918 251.9375Q128.84918 251.03125 128.33356 250.51562Q127.833565 249.98438 127.00544 249.98438Q126.50544 249.98438 126.083565 250.21875Q125.677315 250.45312 125.44294 250.8125L124.458565 250.6875L125.28669 246.28125L129.56793 246.28125L129.56793 247.28125L126.13044 247.28125L125.677315 249.59375Q126.44294 249.04688 127.28669 249.04688Q128.41168 249.04688 129.1773 249.82812Q129.95856 250.60938 129.95856 251.84375Q129.95856 253.0 129.28668 253.85938Q128.45856 254.89062 127.03669 254.89062Q125.864815 254.89062 125.114815 254.23438Q124.38044 253.57812 124.271065 252.5Z" fill-rule="nonzero"/><path fill="#000000" d="M188.54453 254.75L187.49765 254.75L187.49765 248.03125Q187.10703 248.39062 186.48203 248.76562Q185.87265 249.125 185.38828 249.29688L185.38828 248.28125Q186.26328 247.85938 186.91953 247.28125Q187.5914 246.6875 187.87265 246.125L188.54453 246.125L188.54453 254.75ZM191.57578 250.51562Q191.57578 248.98438 191.88828 248.0625Q192.20078 247.125 192.81015 246.625Q193.43515 246.125 194.37265 246.125Q195.06015 246.125 195.57578 246.40625Q196.10703 246.6875 196.45078 247.21875Q196.79453 247.73438 196.98203 248.48438Q197.16953 249.23438 197.16953 250.51562Q197.16953 252.03125 196.85703 252.95312Q196.56015 253.875 195.93515 254.39062Q195.32578 254.89062 194.37265 254.89062Q193.13828 254.89062 192.41953 254.0Q191.57578 252.9375 191.57578 250.51562ZM192.6539 250.51562Q192.6539 252.625 193.1539 253.32812Q193.6539 254.03125 194.37265 254.03125Q195.10703 254.03125 195.5914 253.32812Q196.0914 252.625 196.0914 250.51562Q196.0914 248.39062 195.5914 247.70312Q195.10703 247.0 194.35703 247.0Q193.63828 247.0 193.20078 247.60938Q192.6539 248.39062 192.6539 250.51562Z" fill-rule="nonzero"/><path fill="#000000" d="M252.34921 254.75L251.30234 254.75L251.30234 248.03125Q250.91171 248.39062 250.28671 248.76562Q249.67734 249.125 249.19296 249.29688L249.19296 248.28125Q250.06796 247.85938 250.72421 247.28125Q251.39609 246.6875 251.67734 246.125L252.34921 246.125L252.34921 254.75ZM255.38046 252.5L256.48984 252.40625Q256.61484 253.21875 257.05234 253.625Q257.50546 254.03125 258.1461 254.03125Q258.8961 254.03125 259.42734 253.45312Q259.9586 252.875 259.9586 251.9375Q259.9586 251.03125 259.44296 250.51562Q258.94296 249.98438 258.11484 249.98438Q257.61484 249.98438 257.19296 250.21875Q256.7867 250.45312 256.55234 250.8125L255.56796 250.6875L256.3961 246.28125L260.67734 246.28125L260.67734 247.28125L257.23984 247.28125L256.7867 249.59375Q257.55234 249.04688 258.3961 249.04688Q259.5211 249.04688 260.2867 249.82812Q261.06796 250.60938 261.06796 251.84375Q261.06796 253.0 260.3961 253.85938Q259.56796 254.89062 258.1461 254.89062Q256.9742 254.89062 256.2242 254.23438Q255.48984 253.57812 255.38046 252.5Z" fill-rule="nonzero"/><path fill="#000000" d="M317.73206 253.73438L317.73206 254.75L312.04456 254.75Q312.04456 254.375 312.16956 254.01562Q312.3883 253.4375 312.85706 252.875Q313.34143 252.3125 314.24768 251.57812Q315.65393 250.42188 316.1383 249.75Q316.6383 249.07812 316.6383 248.48438Q316.6383 247.85938 316.18518 247.4375Q315.73206 247.0 315.0133 247.0Q314.24768 247.0 313.79456 247.45312Q313.34143 247.90625 313.3258 248.71875L312.24768 248.60938Q312.35706 247.39062 313.0758 246.76562Q313.81018 246.125 315.04456 246.125Q316.27893 246.125 316.99768 246.8125Q317.71643 247.5 317.71643 248.51562Q317.71643 249.03125 317.49768 249.53125Q317.29456 250.01562 316.79456 250.57812Q316.31018 251.125 315.18518 252.07812Q314.23206 252.875 313.9508 253.17188Q313.68518 253.45312 313.5133 253.73438L317.73206 253.73438ZM319.18518 250.51562Q319.18518 248.98438 319.49768 248.0625Q319.81018 247.125 320.41956 246.625Q321.04456 246.125 321.98206 246.125Q322.66956 246.125 323.18518 246.40625Q323.71643 246.6875 324.06018 247.21875Q324.40393 247.73438 324.59143 248.48438Q324.77893 249.23438 324.77893 250.51562Q324.77893 252.03125 324.46643 252.95312Q324.16956 253.875 323.54456 254.39062Q322.93518 254.89062 321.98206 254.89062Q320.74768 254.89062 320.02893 254.0Q319.18518 252.9375 319.18518 250.51562ZM320.2633 250.51562Q320.2633 252.625 320.7633 253.32812Q321.2633 254.03125 321.98206 254.03125Q322.71643 254.03125 323.2008 253.32812Q323.7008 252.625 323.7008 250.51562Q323.7008 248.39062 323.2008 247.70312Q322.71643 247.0 321.96643 247.0Q321.24768 247.0 320.81018 247.60938Q320.2633 248.39062 320.2633 250.51562Z" fill-rule="nonzero"/><path fill="#000000" d="M381.53674 253.73438L381.53674 254.75L375.84924 254.75Q375.84924 254.375 375.97424 254.01562Q376.193 253.4375 376.66174 252.875Q377.14612 252.3125 378.05237 251.57812Q379.45862 250.42188 379.943 249.75Q380.443 249.07812 380.443 248.48438Q380.443 247.85938 379.98987 247.4375Q379.53674 247.0 378.818 247.0Q378.05237 247.0 377.59924 247.45312Q377.14612 247.90625 377.1305 248.71875L376.05237 248.60938Q376.16174 247.39062 376.8805 246.76562Q377.61487 246.125 378.84924 246.125Q380.08362 246.125 380.80237 246.8125Q381.52112 247.5 381.52112 248.51562Q381.52112 249.03125 381.30237 249.53125Q381.09924 250.01562 380.59924 250.57812Q380.11487 251.125 378.98987 252.07812Q378.03674 252.875 377.7555 253.17188Q377.48987 253.45312 377.318 253.73438L381.53674 253.73438ZM382.98987 252.5L384.09924 252.40625Q384.22424 253.21875 384.66174 253.625Q385.11487 254.03125 385.7555 254.03125Q386.5055 254.03125 387.03674 253.45312Q387.568 252.875 387.568 251.9375Q387.568 251.03125 387.05237 250.51562Q386.55237 249.98438 385.72424 249.98438Q385.22424 249.98438 384.80237 250.21875Q384.39612 250.45312 384.16174 250.8125L383.17737 250.6875L384.0055 246.28125L388.28674 246.28125L388.28674 247.28125L384.84924 247.28125L384.39612 249.59375Q385.16174 249.04688 386.0055 249.04688Q387.1305 249.04688 387.89612 249.82812Q388.67737 250.60938 388.67737 251.84375Q388.67737 253.0 388.0055 253.85938Q387.17737 254.89062 385.7555 254.89062Q384.58362 254.89062 383.83362 254.23438Q383.09924 253.57812 382.98987 252.5Z" fill-rule="nonzero"/><path fill="#4285f4" d="M107.5 22.25C107.5 25.56371 104.813705 28.25 101.5 28.25C98.186295 28.25 95.5 25.56371 95.5 22.25C95.5 18.93629 98.186295 16.25 101.5 16.25C104.813705 16.25 107.5 18.93629 107.5 22.25Z" fill-rule="nonzero"/><path fill="#1a1a1a" d="M119.96875 26.25L118.921875 26.25L118.921875 19.53125Q118.53125 19.890625 117.90625 20.265625Q117.296875 20.625 116.8125 20.796875L116.8125 19.78125Q117.6875 19.359375 118.34375 18.78125Q119.015625 18.1875 119.296875 17.625L119.96875 17.625L119.96875 26.25ZM128.54688 25.234375L128.54688 26.25L122.859375 26.25Q122.859375 25.875 122.984375 25.515625Q123.203125 24.9375 123.671875 24.375Q124.15625 23.8125 125.0625 23.078125Q126.46875 21.921875 126.953125 21.25Q127.453125 20.578125 127.453125 19.984375Q127.453125 19.359375 127.0 18.9375Q126.546875 18.5 125.828125 18.5Q125.0625 18.5 124.609375 18.953125Q124.15625 19.40625 124.140625 20.21875L123.0625 20.109375Q123.171875 18.890625 123.890625 18.265625Q124.625 17.625 125.859375 17.625Q127.09375 17.625 127.8125 18.3125Q128.53125 19.0 128.53125 20.015625Q128.53125 20.53125 128.3125 21.03125Q128.10938 21.515625 127.609375 22.078125Q127.125 22.625 126.0 23.578125Q125.046875 24.375 124.765625 24.671875Q124.5 24.953125 124.328125 25.234375L128.54688 25.234375ZM131.625 21.59375Q130.96875 21.34375 130.64062 20.90625Q130.32812 20.453125 130.32812 19.84375Q130.32812 18.90625 131.0 18.265625Q131.6875 17.625 132.79688 17.625Q133.92188 17.625 134.60938 18.28125Q135.29688 18.9375 135.29688 19.875Q135.29688 20.46875 134.98438 20.90625Q134.67188 21.34375 134.03125 21.59375Q134.82812 21.84375 135.23438 22.421875Q135.64062 23.0 135.64062 23.796875Q135.64062 24.890625 134.85938 25.640625Q134.09375 26.390625 132.8125 26.390625Q131.54688 26.390625 130.76562 25.640625Q129.98438 24.890625 129.98438 23.765625Q129.98438 22.921875 130.40625 22.359375Q130.84375 21.796875 131.625 21.59375ZM131.40625 19.796875Q131.40625 20.40625 131.79688 20.796875Q132.20312 21.1875 132.82812 21.1875Q133.4375 21.1875 133.82812 20.8125Q134.21875 20.421875 134.21875 19.859375Q134.21875 19.28125 133.8125 18.890625Q133.40625 18.484375 132.8125 18.484375Q132.20312 18.484375 131.79688 18.875Q131.40625 19.265625 131.40625 19.796875ZM131.07812 23.765625Q131.07812 24.21875 131.28125 24.640625Q131.5 25.0625 131.92188 25.296875Q132.34375 25.53125 132.82812 25.53125Q133.57812 25.53125 134.0625 25.046875Q134.5625 24.5625 134.5625 23.8125Q134.5625 23.046875 134.0625 22.546875Q133.5625 22.046875 132.79688 22.046875Q132.04688 22.046875 131.5625 22.546875Q131.07812 23.03125 131.07812 23.765625ZM136.59375 26.25L138.85938 23.015625L136.76562 20.03125L138.07812 20.03125L139.03125 21.484375Q139.29688 21.90625 139.46875 22.1875Q139.71875 21.796875 139.9375 21.5L140.98438 20.03125L142.25 20.03125L140.09375 22.953125L142.40625 26.25L141.125 26.25L139.84375 24.3125L139.5 23.796875L137.85938 26.25L136.59375 26.25ZM145.96875 26.25L144.92188 26.25L144.92188 19.53125Q144.53125 19.890625 143.90625 20.265625Q143.29688 20.625 142.8125 20.796875L142.8125 19.78125Q143.6875 19.359375 144.34375 18.78125Q145.01562 18.1875 145.29688 17.625L145.96875 17.625L145.96875 26.25ZM154.54688 25.234375L154.54688 26.25L148.85938 26.25Q148.85938 25.875 148.98438 25.515625Q149.20312 24.9375 149.67188 24.375Q150.15625 23.8125 151.0625 23.078125Q152.46875 21.921875 152.95312 21.25Q153.45312 20.578125 153.45312 19.984375Q153.45312 19.359375 153.0 18.9375Q152.54688 18.5 151.82812 18.5Q151.0625 18.5 150.60938 18.953125Q150.15625 19.40625 150.14062 20.21875L149.0625 20.109375Q149.17188 18.890625 149.89062 18.265625Q150.625 17.625 151.85938 17.625Q153.09375 17.625 153.8125 18.3125Q154.53125 19.0 154.53125 20.015625Q154.53125 20.53125 154.3125 21.03125Q154.10938 21.515625 153.60938 22.078125Q153.125 22.625 152.0 23.578125Q151.04688 24.375 150.76562 24.671875Q150.5 24.953125 150.32812 25.234375L154.54688 25.234375ZM157.625 21.59375Q156.96875 21.34375 156.64062 20.90625Q156.32812 20.453125 156.32812 19.84375Q156.32812 18.90625 157.0 18.265625Q157.6875 17.625 158.79688 17.625Q159.92188 17.625 160.60938 18.28125Q161.29688 18.9375 161.29688 19.875Q161.29688 20.46875 160.98438 20.90625Q160.67188 21.34375 160.03125 21.59375Q160.82812 21.84375 161.23438 22.421875Q161.64062 23.0 161.64062 23.796875Q161.64062 24.890625 160.85938 25.640625Q160.09375 26.390625 158.8125 26.390625Q157.54688 26.390625 156.76562 25.640625Q155.98438 24.890625 155.98438 23.765625Q155.98438 22.921875 156.40625 22.359375Q156.84375 21.796875 157.625 21.59375ZM157.40625 19.796875Q157.40625 20.40625 157.79688 20.796875Q158.20312 21.1875 158.82812 21.1875Q159.4375 21.1875 159.82812 20.8125Q160.21875 20.421875 160.21875 19.859375Q160.21875 19.28125 159.8125 18.890625Q159.40625 18.484375 158.8125 18.484375Q158.20312 18.484375 157.79688 18.875Q157.40625 19.265625 157.40625 19.796875ZM157.07812 23.765625Q157.07812 24.21875 157.28125 24.640625Q157.5 25.0625 157.92188 25.296875Q158.34375 25.53125 158.82812 25.53125Q159.57812 25.53125 160.0625 25.046875Q160.5625 24.5625 160.5625 23.8125Q160.5625 23.046875 160.0625 22.546875Q159.5625 22.046875 158.79688 22.046875Q158.04688 22.046875 157.5625 22.546875Q157.07812 23.03125 157.07812 23.765625Z" fill-rule="nonzero"/><path fill="#ea4335" d="M190.5 22.25C190.5 25.56371 187.8137 28.25 184.5 28.25C181.1863 28.25 178.5 25.56371 178.5 22.25C178.5 18.93629 181.1863 16.25 184.5 16.25C187.8137 16.25 190.5 18.93629 190.5 22.25Z" fill-rule="nonzero"/><path fill="#1a1a1a" d="M204.54688 25.234375L204.54688 26.25L198.85938 26.25Q198.85938 25.875 198.98438 25.515625Q199.20312 24.9375 199.67188 24.375Q200.15625 23.8125 201.0625 23.078125Q202.46875 21.921875 202.95312 21.25Q203.45312 20.578125 203.45312 19.984375Q203.45312 19.359375 203.0 18.9375Q202.54688 18.5 201.82812 18.5Q201.0625 18.5 200.60938 18.953125Q200.15625 19.40625 200.14062 20.21875L199.0625 20.109375Q199.17188 18.890625 199.89062 18.265625Q200.625 17.625 201.85938 17.625Q203.09375 17.625 203.8125 18.3125Q204.53125 19.0 204.53125 20.015625Q204.53125 20.53125 204.3125 21.03125Q204.10938 21.515625 203.60938 22.078125Q203.125 22.625 202.0 23.578125Q201.04688 24.375 200.76562 24.671875Q200.5 24.953125 200.32812 25.234375L204.54688 25.234375ZM206.0 24.0L207.10938 23.90625Q207.23438 24.71875 207.67188 25.125Q208.125 25.53125 208.76562 25.53125Q209.51562 25.53125 210.04688 24.953125Q210.57812 24.375 210.57812 23.4375Q210.57812 22.53125 210.0625 22.015625Q209.5625 21.484375 208.73438 21.484375Q208.23438 21.484375 207.8125 21.71875Q207.40625 21.953125 207.17188 22.3125L206.1875 22.1875L207.01562 17.78125L211.29688 17.78125L211.29688 18.78125L207.85938 18.78125L207.40625 21.09375Q208.17188 20.546875 209.01562 20.546875Q210.14062 20.546875 210.90625 21.328125Q211.6875 22.109375 211.6875 23.34375Q211.6875 24.5 211.01562 25.359375Q210.1875 26.390625 208.76562 26.390625Q207.59375 26.390625 206.84375 25.734375Q206.10938 25.078125 206.0 24.0ZM218.46875 19.765625L217.42188 19.84375Q217.28125 19.21875 217.03125 18.9375Q216.59375 18.484375 215.96875 18.484375Q215.46875 18.484375 215.07812 18.765625Q214.59375 19.140625 214.29688 19.84375Q214.01562 20.53125 214.0 21.8125Q214.375 21.234375 214.92188 20.953125Q215.48438 20.671875 216.09375 20.671875Q217.14062 20.671875 217.875 21.453125Q218.625 22.234375 218.625 23.453125Q218.625 24.265625 218.26562 24.96875Q217.92188 25.65625 217.3125 26.03125Q216.70312 26.390625 215.9375 26.390625Q214.60938 26.390625 213.78125 25.421875Q212.95312 24.453125 212.95312 22.234375Q212.95312 19.734375 213.875 18.609375Q214.67188 17.625 216.03125 17.625Q217.04688 17.625 217.6875 18.203125Q218.34375 18.765625 218.46875 19.765625ZM214.17188 23.46875Q214.17188 24.015625 214.39062 24.515625Q214.625 25.0 215.03125 25.265625Q215.45312 25.53125 215.92188 25.53125Q216.57812 25.53125 217.0625 25.0Q217.54688 24.453125 217.54688 23.53125Q217.54688 22.640625 217.0625 22.125Q216.59375 21.609375 215.875 21.609375Q215.15625 21.609375 214.65625 22.125Q214.17188 22.640625 214.17188 23.46875ZM219.59375 26.25L221.85938 23.015625L219.76562 20.03125L221.07812 20.03125L222.03125 21.484375Q222.29688 21.90625 222.46875 22.1875Q222.71875 21.796875 222.9375 21.5L223.98438 20.03125L225.25 20.03125L223.09375 22.953125L225.40625 26.25L224.125 26.25L222.84375 24.3125L222.5 23.796875L220.85938 26.25L219.59375 26.25ZM230.54688 25.234375L230.54688 26.25L224.85938 26.25Q224.85938 25.875 224.98438 25.515625Q225.20312 24.9375 225.67188 24.375Q226.15625 23.8125 227.0625 23.078125Q228.46875 21.921875 228.95312 21.25Q229.45312 20.578125 229.45312 19.984375Q229.45312 19.359375 229.0 18.9375Q228.54688 18.5 227.82812 18.5Q227.0625 18.5 226.60938 18.953125Q226.15625 19.40625 226.14062 20.21875L225.0625 20.109375Q225.17188 18.890625 225.89062 18.265625Q226.625 17.625 227.85938 17.625Q229.09375 17.625 229.8125 18.3125Q230.53125 19.0 230.53125 20.015625Q230.53125 20.53125 230.3125 21.03125Q230.10938 21.515625 229.60938 22.078125Q229.125 22.625 228.0 23.578125Q227.04688 24.375 226.76562 24.671875Q226.5 24.953125 226.32812 25.234375L230.54688 25.234375ZM232.0 24.0L233.10938 23.90625Q233.23438 24.71875 233.67188 25.125Q234.125 25.53125 234.76562 25.53125Q235.51562 25.53125 236.04688 24.953125Q236.57812 24.375 236.57812 23.4375Q236.57812 22.53125 236.0625 22.015625Q235.5625 21.484375 234.73438 21.484375Q234.23438 21.484375 233.8125 21.71875Q233.40625 21.953125 233.17188 22.3125L232.1875 22.1875L233.01562 17.78125L237.29688 17.78125L237.29688 18.78125L233.85938 18.78125L233.40625 21.09375Q234.17188 20.546875 235.01562 20.546875Q236.14062 20.546875 236.90625 21.328125Q237.6875 22.109375 237.6875 23.34375Q237.6875 24.5 237.01562 25.359375Q236.1875 26.390625 234.76562 26.390625Q233.59375 26.390625 232.84375 25.734375Q232.10938 25.078125 232.0 24.0ZM244.46875 19.765625L243.42188 19.84375Q243.28125 19.21875 243.03125 18.9375Q242.59375 18.484375 241.96875 18.484375Q241.46875 18.484375 241.07812 18.765625Q240.59375 19.140625 240.29688 19.84375Q240.01562 20.53125 240.0 21.8125Q240.375 21.234375 240.92188 20.953125Q241.48438 20.671875 242.09375 20.671875Q243.14062 20.671875 243.875 21.453125Q244.625 22.234375 244.625 23.453125Q244.625 24.265625 244.26562 24.96875Q243.92188 25.65625 243.3125 26.03125Q242.70312 26.390625 241.9375 26.390625Q240.60938 26.390625 239.78125 25.421875Q238.95312 24.453125 238.95312 22.234375Q238.95312 19.734375 239.875 18.609375Q240.67188 17.625 242.03125 17.625Q243.04688 17.625 243.6875 18.203125Q244.34375 18.765625 244.46875 19.765625ZM240.17188 23.46875Q240.17188 24.015625 240.39062 24.515625Q240.625 25.0 241.03125 25.265625Q241.45312 25.53125 241.92188 25.53125Q242.57812 25.53125 243.0625 25.0Q243.54688 24.453125 243.54688 23.53125Q243.54688 22.640625 243.0625 22.125Q242.59375 21.609375 241.875 21.609375Q241.15625 21.609375 240.65625 22.125Q240.17188 22.640625 240.17188 23.46875Z" fill-rule="nonzero"/><path fill="#fbbc04" d="M273.5 22.25C273.5 25.56371 270.81372 28.25 267.5 28.25C264.18628 28.25 261.5 25.56371 261.5 22.25C261.5 18.93629 264.18628 16.25 267.5 16.25C270.81372 16.25 273.5 18.93629 273.5 22.25Z" fill-rule="nonzero"/><path fill="#1a1a1a" d="M285.96875 26.25L284.92188 26.25L284.92188 19.53125Q284.53125 19.890625 283.90625 20.265625Q283.29688 20.625 282.8125 20.796875L282.8125 19.78125Q283.6875 19.359375 284.34375 18.78125Q285.01562 18.1875 285.29688 17.625L285.96875 17.625L285.96875 26.25ZM289.0 22.015625Q289.0 20.484375 289.3125 19.5625Q289.625 18.625 290.23438 18.125Q290.85938 17.625 291.79688 17.625Q292.48438 17.625 293.0 17.90625Q293.53125 18.1875 293.875 18.71875Q294.21875 19.234375 294.40625 19.984375Q294.59375 20.734375 294.59375 22.015625Q294.59375 23.53125 294.28125 24.453125Q293.98438 25.375 293.35938 25.890625Q292.75 26.390625 291.79688 26.390625Q290.5625 26.390625 289.84375 25.5Q289.0 24.4375 289.0 22.015625ZM290.07812 22.015625Q290.07812 24.125 290.57812 24.828125Q291.07812 25.53125 291.79688 25.53125Q292.53125 25.53125 293.01562 24.828125Q293.51562 24.125 293.51562 22.015625Q293.51562 19.890625 293.01562 19.203125Q292.53125 18.5 291.78125 18.5Q291.0625 18.5 290.625 19.109375Q290.07812 19.890625 290.07812 22.015625ZM301.54688 25.234375L301.54688 26.25L295.85938 26.25Q295.85938 25.875 295.98438 25.515625Q296.20312 24.9375 296.67188 24.375Q297.15625 23.8125 298.0625 23.078125Q299.46875 21.921875 299.95312 21.25Q300.45312 20.578125 300.45312 19.984375Q300.45312 19.359375 300.0 18.9375Q299.54688 18.5 298.82812 18.5Q298.0625 18.5 297.60938 18.953125Q297.15625 19.40625 297.14062 20.21875L296.0625 20.109375Q296.17188 18.890625 296.89062 18.265625Q297.625 17.625 298.85938 17.625Q300.09375 17.625 300.8125 18.3125Q301.53125 19.0 301.53125 20.015625Q301.53125 20.53125 301.3125 21.03125Q301.10938 21.515625 300.60938 22.078125Q300.125 22.625 299.0 23.578125Q298.04688 24.375 297.76562 24.671875Q297.5 24.953125 297.32812 25.234375L301.54688 25.234375ZM306.375 26.25L306.375 24.1875L302.65625 24.1875L302.65625 23.21875L306.57812 17.65625L307.4375 17.65625L307.4375 23.21875L308.59375 23.21875L308.59375 24.1875L307.4375 24.1875L307.4375 26.25L306.375 26.25ZM306.375 23.21875L306.375 19.359375L303.6875 23.21875L306.375 23.21875ZM309.59375 26.25L311.85938 23.015625L309.76562 20.03125L311.07812 20.03125L312.03125 21.484375Q312.29688 21.90625 312.46875 22.1875Q312.71875 21.796875 312.9375 21.5L313.98438 20.03125L315.25 20.03125L313.09375 22.953125L315.40625 26.25L314.125 26.25L312.84375 24.3125L312.5 23.796875L310.85938 26.25L309.59375 26.25ZM318.96875 26.25L317.92188 26.25L317.92188 19.53125Q317.53125 19.890625 316.90625 20.265625Q316.29688 20.625 315.8125 20.796875L315.8125 19.78125Q316.6875 19.359375 317.34375 18.78125Q318.01562 18.1875 318.29688 17.625L318.96875 17.625L318.96875 26.25ZM322.0 22.015625Q322.0 20.484375 322.3125 19.5625Q322.625 18.625 323.23438 18.125Q323.85938 17.625 324.79688 17.625Q325.48438 17.625 326.0 17.90625Q326.53125 18.1875 326.875 18.71875Q327.21875 19.234375 327.40625 19.984375Q327.59375 20.734375 327.59375 22.015625Q327.59375 23.53125 327.28125 24.453125Q326.98438 25.375 326.35938 25.890625Q325.75 26.390625 324.79688 26.390625Q323.5625 26.390625 322.84375 25.5Q322.0 24.4375 322.0 22.015625ZM323.07812 22.015625Q323.07812 24.125 323.57812 24.828125Q324.07812 25.53125 324.79688 25.53125Q325.53125 25.53125 326.01562 24.828125Q326.51562 24.125 326.51562 22.015625Q326.51562 19.890625 326.01562 19.203125Q325.53125 18.5 324.78125 18.5Q324.0625 18.5 323.625 19.109375Q323.07812 19.890625 323.07812 22.015625ZM334.54688 25.234375L334.54688 26.25L328.85938 26.25Q328.85938 25.875 328.98438 25.515625Q329.20312 24.9375 329.67188 24.375Q330.15625 23.8125 331.0625 23.078125Q332.46875 21.921875 332.95312 21.25Q333.45312 20.578125 333.45312 19.984375Q333.45312 19.359375 333.0 18.9375Q332.54688 18.5 331.82812 18.5Q331.0625 18.5 330.60938 18.953125Q330.15625 19.40625 330.14062 20.21875L329.0625 20.109375Q329.17188 18.890625 329.89062 18.265625Q330.625 17.625 331.85938 17.625Q333.09375 17.625 333.8125 18.3125Q334.53125 19.0 334.53125 20.015625Q334.53125 20.53125 334.3125 21.03125Q334.10938 21.515625 333.60938 22.078125Q333.125 22.625 332.0 23.578125Q331.04688 24.375 330.76562 24.671875Q330.5 24.953125 330.32812 25.234375L334.54688 25.234375ZM339.375 26.25L339.375 24.1875L335.65625 24.1875L335.65625 23.21875L339.57812 17.65625L340.4375 17.65625L340.4375 23.21875L341.59375 23.21875L341.59375 24.1875L340.4375 24.1875L340.4375 26.25L339.375 26.25ZM339.375 23.21875L339.375 19.359375L336.6875 23.21875L339.375 23.21875Z" fill-rule="nonzero"/></svg>